M48
METRIC,LZ
T1C0.381
T2C1.000
%
G90
G05
T1
X04064Y-04318
X04064Y-04573
X04064Y-04828
X04064Y-05083
X04064Y-06348
X04064Y-06603
X04064Y-06858
X04064Y-07113
X04069Y-05333
X04069Y-05588
X04069Y-05843
X04069Y-06098
X04069Y-07368
X04069Y-07623
X04069Y-07878
X0431Y-04285
X0431Y-0454
X0431Y-04795
X0431Y-0505
X0431Y-06315
X0431Y-0657
X0431Y-06825
X0431Y-0708
X04315Y-053
X04315Y-05555
X04315Y-0581
X04315Y-06065
X04315Y-07335
X04315Y-0759
X04315Y-07845
X04318Y-04064
X04318Y-08128
X0457Y-0426
X0457Y-04515
X0457Y-0477
X0457Y-05025
X0457Y-0629
X0457Y-06545
X0457Y-068
X0457Y-07055
X04572Y-04064
X04572Y-08128
X04575Y-05275
X04575Y-0553
X04575Y-05785
X04575Y-0604
X04575Y-0731
X04575Y-07565
X04575Y-0782
X0482Y-04245
X0482Y-045
X0482Y-04755
X0482Y-0501
X0482Y-06275
X0482Y-0653
X0482Y-06785
X0482Y-0704
X04825Y-0526
X04825Y-05515
X04825Y-0577
X04825Y-06025
X04825Y-07295
X04825Y-0755
X04825Y-07805
X05235Y-0435
X05235Y-04605
X05235Y-0486
X05235Y-05115
X05235Y-0638
X05235Y-06635
X05235Y-0689
X05235Y-07145
X0524Y-05365
X0524Y-0562
X0524Y-05875
X0524Y-0613
X0524Y-074
X0524Y-07655
X0524Y-0791
X058674Y-04318
X058674Y-04573
X058674Y-04828
X058674Y-05083
X058674Y-06348
X058674Y-06603
X058674Y-06858
X058674Y-07113
X058724Y-05333
X058724Y-05588
X058724Y-05843
X058724Y-06098
X058724Y-07368
X058724Y-07623
X058724Y-07878
X065024Y-04318
X065024Y-04318
X065024Y-04573
X065024Y-04573
X065024Y-04828
X065024Y-04828
X065024Y-05083
X065024Y-05083
X065024Y-06348
X065024Y-06348
X065024Y-06603
X065024Y-06603
X065024Y-06858
X065024Y-06858
X065024Y-07113
X065024Y-07113
X065074Y-05333
X065074Y-05333
X065074Y-05588
X065074Y-05588
X065074Y-05843
X065074Y-05843
X065074Y-06098
X065074Y-06098
X065074Y-07368
X065074Y-07368
X065074Y-07623
X065074Y-07623
X065074Y-07878
X065074Y-07878
X0655Y-0837
X0717Y-0458
X071704Y-053267
X0718Y-0662
X0718Y-0687
X0718Y-0712
X0719Y-0585
X0719Y-0433
X0719Y-0483
X0719Y-0508
X0719Y-0611
X0719Y-0738
X072Y-0559
X072Y-0635
X072Y-0761
X072Y-0788
X0781Y-0635
X0781Y-0786
X0782Y-0432
X0782Y-0585
X0782Y-0611
X0782Y-0761
X0783Y-0482
X0783Y-0558
X0783Y-0662
X0783Y-0686
X0783Y-0712
X0783Y-0737
X0783Y-0457
X0783Y-0534
X0784Y-0509
X0845Y-0483
X0845Y-0584
X0845Y-0609
X0845Y-0713
X0845Y-0787
X0846Y-0432
X0846Y-0458
X0846Y-0508
X0846Y-0633
X0846Y-0686
X0846Y-0736
X0846Y-0763
X0847Y-0534
X0847Y-056
X0847Y-066
X0908Y-0508
X0908Y-0534
X0908Y-0762
X0909Y-0431
X0909Y-0586
X0909Y-0611
X0909Y-0635
X0909Y-066
X0909Y-0686
X0909Y-0711
X0909Y-0738
X0909Y-0788
X0909Y-056
X091Y-0458
X091Y-0483
X09675Y-0436
X09675Y-04615
X09675Y-04865
X09675Y-0512
X09675Y-05375
X09675Y-0563
X09675Y-0588
X09675Y-06135
X09675Y-06385
X09675Y-06645
X09675Y-069
X09675Y-07155
X09675Y-0741
X09675Y-0766
X09675Y-07915
X10395Y-04245
X10395Y-045
X10395Y-0475
X10395Y-05005
X10395Y-0526
X10395Y-05515
X10395Y-05765
X10395Y-0602
X10395Y-0627
X10395Y-0653
X10395Y-06785
X10395Y-0704
X10395Y-07295
X10395Y-07545
X1041Y-0782
X1065Y-0426
X1065Y-04515
X1065Y-04765
X1065Y-0502
X1065Y-05275
X1065Y-0553
X1065Y-0578
X1065Y-06035
X1065Y-06285
X1065Y-06545
X1065Y-068
X1065Y-07055
X1065Y-0731
X1065Y-0756
X1065Y-07815
X10668Y-04064
X10668Y-08128
X10922Y-04064
X10922Y-08128
X10925Y-04295
X10925Y-0455
X10925Y-048
X10925Y-05055
X10925Y-0531
X10925Y-05565
X10925Y-05815
X10925Y-0607
X10925Y-0632
X10925Y-0658
X10925Y-06835
X10925Y-0709
X10925Y-07345
X10925Y-07595
X10925Y-0785
X11176Y-04318
X11176Y-04573
X11176Y-04823
X11176Y-05078
X11176Y-05333
X11176Y-05588
X11176Y-05838
X11176Y-06093
X11176Y-06343
X11176Y-06603
X11176Y-06858
X11176Y-07113
X11176Y-07368
X11176Y-07618
X11176Y-07873
T2
X0762Y-082296
T0
M30
