G04 #@! TF.FileFunction,Legend,Top*
%FSLAX46Y46*%
G04 Gerber Fmt 4.6, Leading zero omitted, Abs format (unit mm)*
G04 Created by KiCad (PCBNEW 4.0.6) date 05/18/18 10:42:42*
%MOMM*%
%LPD*%
G01*
G04 APERTURE LIST*
%ADD10C,0.150000*%
%ADD11C,0.200000*%
%ADD12C,0.100000*%
%ADD13C,0.120000*%
G04 APERTURE END LIST*
D10*
D11*
X47961905Y-36733333D02*
X48200000Y-38133333D01*
X48390477Y-37133333D01*
X48580953Y-38133333D01*
X48819048Y-36733333D01*
X49152381Y-37733333D02*
X49628572Y-37733333D01*
X49057143Y-38133333D02*
X49390476Y-36733333D01*
X49723810Y-38133333D01*
X50628572Y-38133333D02*
X50295238Y-37466667D01*
X50057143Y-38133333D02*
X50057143Y-36733333D01*
X50438096Y-36733333D01*
X50533334Y-36800000D01*
X50580953Y-36866667D01*
X50628572Y-37000000D01*
X50628572Y-37200000D01*
X50580953Y-37333333D01*
X50533334Y-37400000D01*
X50438096Y-37466667D01*
X50057143Y-37466667D01*
X51057143Y-38133333D02*
X51057143Y-36733333D01*
X51628572Y-38133333D01*
X51628572Y-36733333D01*
X52104762Y-38133333D02*
X52104762Y-36733333D01*
X52580952Y-38133333D02*
X52580952Y-36733333D01*
X53152381Y-38133333D01*
X53152381Y-36733333D01*
X54152381Y-36800000D02*
X54057143Y-36733333D01*
X53914286Y-36733333D01*
X53771428Y-36800000D01*
X53676190Y-36933333D01*
X53628571Y-37066667D01*
X53580952Y-37333333D01*
X53580952Y-37533333D01*
X53628571Y-37800000D01*
X53676190Y-37933333D01*
X53771428Y-38066667D01*
X53914286Y-38133333D01*
X54009524Y-38133333D01*
X54152381Y-38066667D01*
X54200000Y-38000000D01*
X54200000Y-37533333D01*
X54009524Y-37533333D01*
X54628571Y-38000000D02*
X54676190Y-38066667D01*
X54628571Y-38133333D01*
X54580952Y-38066667D01*
X54628571Y-38000000D01*
X54628571Y-38133333D01*
X54628571Y-37266667D02*
X54676190Y-37333333D01*
X54628571Y-37400000D01*
X54580952Y-37333333D01*
X54628571Y-37266667D01*
X54628571Y-37400000D01*
X55866666Y-38133333D02*
X55866666Y-36733333D01*
X56438095Y-38133333D01*
X56438095Y-36733333D01*
X57104761Y-36733333D02*
X57295238Y-36733333D01*
X57390476Y-36800000D01*
X57485714Y-36933333D01*
X57533333Y-37200000D01*
X57533333Y-37666667D01*
X57485714Y-37933333D01*
X57390476Y-38066667D01*
X57295238Y-38133333D01*
X57104761Y-38133333D01*
X57009523Y-38066667D01*
X56914285Y-37933333D01*
X56866666Y-37666667D01*
X56866666Y-37200000D01*
X56914285Y-36933333D01*
X57009523Y-36800000D01*
X57104761Y-36733333D01*
X57819047Y-36733333D02*
X58390476Y-36733333D01*
X58104761Y-38133333D02*
X58104761Y-36733333D01*
X59485714Y-38133333D02*
X59485714Y-36733333D01*
X59819048Y-37733333D01*
X60152381Y-36733333D01*
X60152381Y-38133333D01*
X60580952Y-37733333D02*
X61057143Y-37733333D01*
X60485714Y-38133333D02*
X60819047Y-36733333D01*
X61152381Y-38133333D01*
X61485714Y-38133333D02*
X61485714Y-36733333D01*
X61723809Y-36733333D01*
X61866667Y-36800000D01*
X61961905Y-36933333D01*
X62009524Y-37066667D01*
X62057143Y-37333333D01*
X62057143Y-37533333D01*
X62009524Y-37800000D01*
X61961905Y-37933333D01*
X61866667Y-38066667D01*
X61723809Y-38133333D01*
X61485714Y-38133333D01*
X62485714Y-37400000D02*
X62819048Y-37400000D01*
X62961905Y-38133333D02*
X62485714Y-38133333D01*
X62485714Y-36733333D01*
X62961905Y-36733333D01*
X64485715Y-37400000D02*
X64152381Y-37400000D01*
X64152381Y-38133333D02*
X64152381Y-36733333D01*
X64628572Y-36733333D01*
X65200000Y-36733333D02*
X65390477Y-36733333D01*
X65485715Y-36800000D01*
X65580953Y-36933333D01*
X65628572Y-37200000D01*
X65628572Y-37666667D01*
X65580953Y-37933333D01*
X65485715Y-38066667D01*
X65390477Y-38133333D01*
X65200000Y-38133333D01*
X65104762Y-38066667D01*
X65009524Y-37933333D01*
X64961905Y-37666667D01*
X64961905Y-37200000D01*
X65009524Y-36933333D01*
X65104762Y-36800000D01*
X65200000Y-36733333D01*
X66628572Y-38133333D02*
X66295238Y-37466667D01*
X66057143Y-38133333D02*
X66057143Y-36733333D01*
X66438096Y-36733333D01*
X66533334Y-36800000D01*
X66580953Y-36866667D01*
X66628572Y-37000000D01*
X66628572Y-37200000D01*
X66580953Y-37333333D01*
X66533334Y-37400000D01*
X66438096Y-37466667D01*
X66057143Y-37466667D01*
X67819048Y-38133333D02*
X67819048Y-36733333D01*
X67819048Y-37400000D02*
X68390477Y-37400000D01*
X68390477Y-38133333D02*
X68390477Y-36733333D01*
X68866667Y-38133333D02*
X68866667Y-36733333D01*
X69866667Y-36800000D02*
X69771429Y-36733333D01*
X69628572Y-36733333D01*
X69485714Y-36800000D01*
X69390476Y-36933333D01*
X69342857Y-37066667D01*
X69295238Y-37333333D01*
X69295238Y-37533333D01*
X69342857Y-37800000D01*
X69390476Y-37933333D01*
X69485714Y-38066667D01*
X69628572Y-38133333D01*
X69723810Y-38133333D01*
X69866667Y-38066667D01*
X69914286Y-38000000D01*
X69914286Y-37533333D01*
X69723810Y-37533333D01*
X70342857Y-38133333D02*
X70342857Y-36733333D01*
X70342857Y-37400000D02*
X70914286Y-37400000D01*
X70914286Y-38133333D02*
X70914286Y-36733333D01*
X72009524Y-36733333D02*
X72342857Y-38133333D01*
X72676191Y-36733333D01*
X73200000Y-36733333D02*
X73390477Y-36733333D01*
X73485715Y-36800000D01*
X73580953Y-36933333D01*
X73628572Y-37200000D01*
X73628572Y-37666667D01*
X73580953Y-37933333D01*
X73485715Y-38066667D01*
X73390477Y-38133333D01*
X73200000Y-38133333D01*
X73104762Y-38066667D01*
X73009524Y-37933333D01*
X72961905Y-37666667D01*
X72961905Y-37200000D01*
X73009524Y-36933333D01*
X73104762Y-36800000D01*
X73200000Y-36733333D01*
X74533334Y-38133333D02*
X74057143Y-38133333D01*
X74057143Y-36733333D01*
X74723810Y-36733333D02*
X75295239Y-36733333D01*
X75009524Y-38133333D02*
X75009524Y-36733333D01*
X75580953Y-37733333D02*
X76057144Y-37733333D01*
X75485715Y-38133333D02*
X75819048Y-36733333D01*
X76152382Y-38133333D01*
X77009525Y-36800000D02*
X76914287Y-36733333D01*
X76771430Y-36733333D01*
X76628572Y-36800000D01*
X76533334Y-36933333D01*
X76485715Y-37066667D01*
X76438096Y-37333333D01*
X76438096Y-37533333D01*
X76485715Y-37800000D01*
X76533334Y-37933333D01*
X76628572Y-38066667D01*
X76771430Y-38133333D01*
X76866668Y-38133333D01*
X77009525Y-38066667D01*
X77057144Y-38000000D01*
X77057144Y-37533333D01*
X76866668Y-37533333D01*
X77485715Y-37400000D02*
X77819049Y-37400000D01*
X77961906Y-38133333D02*
X77485715Y-38133333D01*
X77485715Y-36733333D01*
X77961906Y-36733333D01*
X78342858Y-38066667D02*
X78485715Y-38133333D01*
X78723811Y-38133333D01*
X78819049Y-38066667D01*
X78866668Y-38000000D01*
X78914287Y-37866667D01*
X78914287Y-37733333D01*
X78866668Y-37600000D01*
X78819049Y-37533333D01*
X78723811Y-37466667D01*
X78533334Y-37400000D01*
X78438096Y-37333333D01*
X78390477Y-37266667D01*
X78342858Y-37133333D01*
X78342858Y-37000000D01*
X78390477Y-36866667D01*
X78438096Y-36800000D01*
X78533334Y-36733333D01*
X78771430Y-36733333D01*
X78914287Y-36800000D01*
X79342858Y-38000000D02*
X79390477Y-38066667D01*
X79342858Y-38133333D01*
X79295239Y-38066667D01*
X79342858Y-38000000D01*
X79342858Y-38133333D01*
X79342858Y-37600000D02*
X79295239Y-36800000D01*
X79342858Y-36733333D01*
X79390477Y-36800000D01*
X79342858Y-37600000D01*
X79342858Y-36733333D01*
D12*
X95484286Y-42752857D02*
X95373809Y-42752857D01*
X95318571Y-42790000D01*
X95290952Y-42827143D01*
X95235714Y-42938571D01*
X95208095Y-43087143D01*
X95208095Y-43384286D01*
X95235714Y-43458571D01*
X95263333Y-43495714D01*
X95318571Y-43532857D01*
X95429048Y-43532857D01*
X95484286Y-43495714D01*
X95511905Y-43458571D01*
X95539524Y-43384286D01*
X95539524Y-43198571D01*
X95511905Y-43124286D01*
X95484286Y-43087143D01*
X95429048Y-43050000D01*
X95318571Y-43050000D01*
X95263333Y-43087143D01*
X95235714Y-43124286D01*
X95208095Y-43198571D01*
X95898571Y-42752857D02*
X95953810Y-42752857D01*
X96009048Y-42790000D01*
X96036667Y-42827143D01*
X96064286Y-42901429D01*
X96091905Y-43050000D01*
X96091905Y-43235714D01*
X96064286Y-43384286D01*
X96036667Y-43458571D01*
X96009048Y-43495714D01*
X95953810Y-43532857D01*
X95898571Y-43532857D01*
X95843333Y-43495714D01*
X95815714Y-43458571D01*
X95788095Y-43384286D01*
X95760476Y-43235714D01*
X95760476Y-43050000D01*
X95788095Y-42901429D01*
X95815714Y-42827143D01*
X95843333Y-42790000D01*
X95898571Y-42752857D01*
X95484286Y-45292857D02*
X95373809Y-45292857D01*
X95318571Y-45330000D01*
X95290952Y-45367143D01*
X95235714Y-45478571D01*
X95208095Y-45627143D01*
X95208095Y-45924286D01*
X95235714Y-45998571D01*
X95263333Y-46035714D01*
X95318571Y-46072857D01*
X95429048Y-46072857D01*
X95484286Y-46035714D01*
X95511905Y-45998571D01*
X95539524Y-45924286D01*
X95539524Y-45738571D01*
X95511905Y-45664286D01*
X95484286Y-45627143D01*
X95429048Y-45590000D01*
X95318571Y-45590000D01*
X95263333Y-45627143D01*
X95235714Y-45664286D01*
X95208095Y-45738571D01*
X96036667Y-45552857D02*
X96036667Y-46072857D01*
X95898571Y-45255714D02*
X95760476Y-45812857D01*
X96119524Y-45812857D01*
X95484286Y-47832857D02*
X95373809Y-47832857D01*
X95318571Y-47870000D01*
X95290952Y-47907143D01*
X95235714Y-48018571D01*
X95208095Y-48167143D01*
X95208095Y-48464286D01*
X95235714Y-48538571D01*
X95263333Y-48575714D01*
X95318571Y-48612857D01*
X95429048Y-48612857D01*
X95484286Y-48575714D01*
X95511905Y-48538571D01*
X95539524Y-48464286D01*
X95539524Y-48278571D01*
X95511905Y-48204286D01*
X95484286Y-48167143D01*
X95429048Y-48130000D01*
X95318571Y-48130000D01*
X95263333Y-48167143D01*
X95235714Y-48204286D01*
X95208095Y-48278571D01*
X95870952Y-48167143D02*
X95815714Y-48130000D01*
X95788095Y-48092857D01*
X95760476Y-48018571D01*
X95760476Y-47981429D01*
X95788095Y-47907143D01*
X95815714Y-47870000D01*
X95870952Y-47832857D01*
X95981429Y-47832857D01*
X96036667Y-47870000D01*
X96064286Y-47907143D01*
X96091905Y-47981429D01*
X96091905Y-48018571D01*
X96064286Y-48092857D01*
X96036667Y-48130000D01*
X95981429Y-48167143D01*
X95870952Y-48167143D01*
X95815714Y-48204286D01*
X95788095Y-48241429D01*
X95760476Y-48315714D01*
X95760476Y-48464286D01*
X95788095Y-48538571D01*
X95815714Y-48575714D01*
X95870952Y-48612857D01*
X95981429Y-48612857D01*
X96036667Y-48575714D01*
X96064286Y-48538571D01*
X96091905Y-48464286D01*
X96091905Y-48315714D01*
X96064286Y-48241429D01*
X96036667Y-48204286D01*
X95981429Y-48167143D01*
X95180476Y-50372857D02*
X95567143Y-50372857D01*
X95318571Y-51152857D01*
X95760476Y-50447143D02*
X95788095Y-50410000D01*
X95843333Y-50372857D01*
X95981429Y-50372857D01*
X96036667Y-50410000D01*
X96064286Y-50447143D01*
X96091905Y-50521429D01*
X96091905Y-50595714D01*
X96064286Y-50707143D01*
X95732857Y-51152857D01*
X96091905Y-51152857D01*
X95180476Y-52912857D02*
X95567143Y-52912857D01*
X95318571Y-53692857D01*
X96036667Y-52912857D02*
X95926190Y-52912857D01*
X95870952Y-52950000D01*
X95843333Y-52987143D01*
X95788095Y-53098571D01*
X95760476Y-53247143D01*
X95760476Y-53544286D01*
X95788095Y-53618571D01*
X95815714Y-53655714D01*
X95870952Y-53692857D01*
X95981429Y-53692857D01*
X96036667Y-53655714D01*
X96064286Y-53618571D01*
X96091905Y-53544286D01*
X96091905Y-53358571D01*
X96064286Y-53284286D01*
X96036667Y-53247143D01*
X95981429Y-53210000D01*
X95870952Y-53210000D01*
X95815714Y-53247143D01*
X95788095Y-53284286D01*
X95760476Y-53358571D01*
X95318571Y-55787143D02*
X95263333Y-55750000D01*
X95235714Y-55712857D01*
X95208095Y-55638571D01*
X95208095Y-55601429D01*
X95235714Y-55527143D01*
X95263333Y-55490000D01*
X95318571Y-55452857D01*
X95429048Y-55452857D01*
X95484286Y-55490000D01*
X95511905Y-55527143D01*
X95539524Y-55601429D01*
X95539524Y-55638571D01*
X95511905Y-55712857D01*
X95484286Y-55750000D01*
X95429048Y-55787143D01*
X95318571Y-55787143D01*
X95263333Y-55824286D01*
X95235714Y-55861429D01*
X95208095Y-55935714D01*
X95208095Y-56084286D01*
X95235714Y-56158571D01*
X95263333Y-56195714D01*
X95318571Y-56232857D01*
X95429048Y-56232857D01*
X95484286Y-56195714D01*
X95511905Y-56158571D01*
X95539524Y-56084286D01*
X95539524Y-55935714D01*
X95511905Y-55861429D01*
X95484286Y-55824286D01*
X95429048Y-55787143D01*
X95898571Y-55452857D02*
X95953810Y-55452857D01*
X96009048Y-55490000D01*
X96036667Y-55527143D01*
X96064286Y-55601429D01*
X96091905Y-55750000D01*
X96091905Y-55935714D01*
X96064286Y-56084286D01*
X96036667Y-56158571D01*
X96009048Y-56195714D01*
X95953810Y-56232857D01*
X95898571Y-56232857D01*
X95843333Y-56195714D01*
X95815714Y-56158571D01*
X95788095Y-56084286D01*
X95760476Y-55935714D01*
X95760476Y-55750000D01*
X95788095Y-55601429D01*
X95815714Y-55527143D01*
X95843333Y-55490000D01*
X95898571Y-55452857D01*
X95318571Y-58327143D02*
X95263333Y-58290000D01*
X95235714Y-58252857D01*
X95208095Y-58178571D01*
X95208095Y-58141429D01*
X95235714Y-58067143D01*
X95263333Y-58030000D01*
X95318571Y-57992857D01*
X95429048Y-57992857D01*
X95484286Y-58030000D01*
X95511905Y-58067143D01*
X95539524Y-58141429D01*
X95539524Y-58178571D01*
X95511905Y-58252857D01*
X95484286Y-58290000D01*
X95429048Y-58327143D01*
X95318571Y-58327143D01*
X95263333Y-58364286D01*
X95235714Y-58401429D01*
X95208095Y-58475714D01*
X95208095Y-58624286D01*
X95235714Y-58698571D01*
X95263333Y-58735714D01*
X95318571Y-58772857D01*
X95429048Y-58772857D01*
X95484286Y-58735714D01*
X95511905Y-58698571D01*
X95539524Y-58624286D01*
X95539524Y-58475714D01*
X95511905Y-58401429D01*
X95484286Y-58364286D01*
X95429048Y-58327143D01*
X96036667Y-58252857D02*
X96036667Y-58772857D01*
X95898571Y-57955714D02*
X95760476Y-58512857D01*
X96119524Y-58512857D01*
X95318571Y-60867143D02*
X95263333Y-60830000D01*
X95235714Y-60792857D01*
X95208095Y-60718571D01*
X95208095Y-60681429D01*
X95235714Y-60607143D01*
X95263333Y-60570000D01*
X95318571Y-60532857D01*
X95429048Y-60532857D01*
X95484286Y-60570000D01*
X95511905Y-60607143D01*
X95539524Y-60681429D01*
X95539524Y-60718571D01*
X95511905Y-60792857D01*
X95484286Y-60830000D01*
X95429048Y-60867143D01*
X95318571Y-60867143D01*
X95263333Y-60904286D01*
X95235714Y-60941429D01*
X95208095Y-61015714D01*
X95208095Y-61164286D01*
X95235714Y-61238571D01*
X95263333Y-61275714D01*
X95318571Y-61312857D01*
X95429048Y-61312857D01*
X95484286Y-61275714D01*
X95511905Y-61238571D01*
X95539524Y-61164286D01*
X95539524Y-61015714D01*
X95511905Y-60941429D01*
X95484286Y-60904286D01*
X95429048Y-60867143D01*
X95870952Y-60867143D02*
X95815714Y-60830000D01*
X95788095Y-60792857D01*
X95760476Y-60718571D01*
X95760476Y-60681429D01*
X95788095Y-60607143D01*
X95815714Y-60570000D01*
X95870952Y-60532857D01*
X95981429Y-60532857D01*
X96036667Y-60570000D01*
X96064286Y-60607143D01*
X96091905Y-60681429D01*
X96091905Y-60718571D01*
X96064286Y-60792857D01*
X96036667Y-60830000D01*
X95981429Y-60867143D01*
X95870952Y-60867143D01*
X95815714Y-60904286D01*
X95788095Y-60941429D01*
X95760476Y-61015714D01*
X95760476Y-61164286D01*
X95788095Y-61238571D01*
X95815714Y-61275714D01*
X95870952Y-61312857D01*
X95981429Y-61312857D01*
X96036667Y-61275714D01*
X96064286Y-61238571D01*
X96091905Y-61164286D01*
X96091905Y-61015714D01*
X96064286Y-60941429D01*
X96036667Y-60904286D01*
X95981429Y-60867143D01*
X95263333Y-63852857D02*
X95373809Y-63852857D01*
X95429048Y-63815714D01*
X95456667Y-63778571D01*
X95511905Y-63667143D01*
X95539524Y-63518571D01*
X95539524Y-63221429D01*
X95511905Y-63147143D01*
X95484286Y-63110000D01*
X95429048Y-63072857D01*
X95318571Y-63072857D01*
X95263333Y-63110000D01*
X95235714Y-63147143D01*
X95208095Y-63221429D01*
X95208095Y-63407143D01*
X95235714Y-63481429D01*
X95263333Y-63518571D01*
X95318571Y-63555714D01*
X95429048Y-63555714D01*
X95484286Y-63518571D01*
X95511905Y-63481429D01*
X95539524Y-63407143D01*
X95760476Y-63147143D02*
X95788095Y-63110000D01*
X95843333Y-63072857D01*
X95981429Y-63072857D01*
X96036667Y-63110000D01*
X96064286Y-63147143D01*
X96091905Y-63221429D01*
X96091905Y-63295714D01*
X96064286Y-63407143D01*
X95732857Y-63852857D01*
X96091905Y-63852857D01*
X95263333Y-66392857D02*
X95373809Y-66392857D01*
X95429048Y-66355714D01*
X95456667Y-66318571D01*
X95511905Y-66207143D01*
X95539524Y-66058571D01*
X95539524Y-65761429D01*
X95511905Y-65687143D01*
X95484286Y-65650000D01*
X95429048Y-65612857D01*
X95318571Y-65612857D01*
X95263333Y-65650000D01*
X95235714Y-65687143D01*
X95208095Y-65761429D01*
X95208095Y-65947143D01*
X95235714Y-66021429D01*
X95263333Y-66058571D01*
X95318571Y-66095714D01*
X95429048Y-66095714D01*
X95484286Y-66058571D01*
X95511905Y-66021429D01*
X95539524Y-65947143D01*
X96036667Y-65612857D02*
X95926190Y-65612857D01*
X95870952Y-65650000D01*
X95843333Y-65687143D01*
X95788095Y-65798571D01*
X95760476Y-65947143D01*
X95760476Y-66244286D01*
X95788095Y-66318571D01*
X95815714Y-66355714D01*
X95870952Y-66392857D01*
X95981429Y-66392857D01*
X96036667Y-66355714D01*
X96064286Y-66318571D01*
X96091905Y-66244286D01*
X96091905Y-66058571D01*
X96064286Y-65984286D01*
X96036667Y-65947143D01*
X95981429Y-65910000D01*
X95870952Y-65910000D01*
X95815714Y-65947143D01*
X95788095Y-65984286D01*
X95760476Y-66058571D01*
X95263334Y-68932857D02*
X94931905Y-68932857D01*
X95097619Y-68932857D02*
X95097619Y-68152857D01*
X95042381Y-68264286D01*
X94987143Y-68338571D01*
X94931905Y-68375714D01*
X95622381Y-68152857D02*
X95677620Y-68152857D01*
X95732858Y-68190000D01*
X95760477Y-68227143D01*
X95788096Y-68301429D01*
X95815715Y-68450000D01*
X95815715Y-68635714D01*
X95788096Y-68784286D01*
X95760477Y-68858571D01*
X95732858Y-68895714D01*
X95677620Y-68932857D01*
X95622381Y-68932857D01*
X95567143Y-68895714D01*
X95539524Y-68858571D01*
X95511905Y-68784286D01*
X95484286Y-68635714D01*
X95484286Y-68450000D01*
X95511905Y-68301429D01*
X95539524Y-68227143D01*
X95567143Y-68190000D01*
X95622381Y-68152857D01*
X96174762Y-68152857D02*
X96230001Y-68152857D01*
X96285239Y-68190000D01*
X96312858Y-68227143D01*
X96340477Y-68301429D01*
X96368096Y-68450000D01*
X96368096Y-68635714D01*
X96340477Y-68784286D01*
X96312858Y-68858571D01*
X96285239Y-68895714D01*
X96230001Y-68932857D01*
X96174762Y-68932857D01*
X96119524Y-68895714D01*
X96091905Y-68858571D01*
X96064286Y-68784286D01*
X96036667Y-68635714D01*
X96036667Y-68450000D01*
X96064286Y-68301429D01*
X96091905Y-68227143D01*
X96119524Y-68190000D01*
X96174762Y-68152857D01*
X95263334Y-71472857D02*
X94931905Y-71472857D01*
X95097619Y-71472857D02*
X95097619Y-70692857D01*
X95042381Y-70804286D01*
X94987143Y-70878571D01*
X94931905Y-70915714D01*
X95622381Y-70692857D02*
X95677620Y-70692857D01*
X95732858Y-70730000D01*
X95760477Y-70767143D01*
X95788096Y-70841429D01*
X95815715Y-70990000D01*
X95815715Y-71175714D01*
X95788096Y-71324286D01*
X95760477Y-71398571D01*
X95732858Y-71435714D01*
X95677620Y-71472857D01*
X95622381Y-71472857D01*
X95567143Y-71435714D01*
X95539524Y-71398571D01*
X95511905Y-71324286D01*
X95484286Y-71175714D01*
X95484286Y-70990000D01*
X95511905Y-70841429D01*
X95539524Y-70767143D01*
X95567143Y-70730000D01*
X95622381Y-70692857D01*
X96312858Y-70952857D02*
X96312858Y-71472857D01*
X96174762Y-70655714D02*
X96036667Y-71212857D01*
X96395715Y-71212857D01*
X95263334Y-74012857D02*
X94931905Y-74012857D01*
X95097619Y-74012857D02*
X95097619Y-73232857D01*
X95042381Y-73344286D01*
X94987143Y-73418571D01*
X94931905Y-73455714D01*
X95622381Y-73232857D02*
X95677620Y-73232857D01*
X95732858Y-73270000D01*
X95760477Y-73307143D01*
X95788096Y-73381429D01*
X95815715Y-73530000D01*
X95815715Y-73715714D01*
X95788096Y-73864286D01*
X95760477Y-73938571D01*
X95732858Y-73975714D01*
X95677620Y-74012857D01*
X95622381Y-74012857D01*
X95567143Y-73975714D01*
X95539524Y-73938571D01*
X95511905Y-73864286D01*
X95484286Y-73715714D01*
X95484286Y-73530000D01*
X95511905Y-73381429D01*
X95539524Y-73307143D01*
X95567143Y-73270000D01*
X95622381Y-73232857D01*
X96147143Y-73567143D02*
X96091905Y-73530000D01*
X96064286Y-73492857D01*
X96036667Y-73418571D01*
X96036667Y-73381429D01*
X96064286Y-73307143D01*
X96091905Y-73270000D01*
X96147143Y-73232857D01*
X96257620Y-73232857D01*
X96312858Y-73270000D01*
X96340477Y-73307143D01*
X96368096Y-73381429D01*
X96368096Y-73418571D01*
X96340477Y-73492857D01*
X96312858Y-73530000D01*
X96257620Y-73567143D01*
X96147143Y-73567143D01*
X96091905Y-73604286D01*
X96064286Y-73641429D01*
X96036667Y-73715714D01*
X96036667Y-73864286D01*
X96064286Y-73938571D01*
X96091905Y-73975714D01*
X96147143Y-74012857D01*
X96257620Y-74012857D01*
X96312858Y-73975714D01*
X96340477Y-73938571D01*
X96368096Y-73864286D01*
X96368096Y-73715714D01*
X96340477Y-73641429D01*
X96312858Y-73604286D01*
X96257620Y-73567143D01*
X95263334Y-76552857D02*
X94931905Y-76552857D01*
X95097619Y-76552857D02*
X95097619Y-75772857D01*
X95042381Y-75884286D01*
X94987143Y-75958571D01*
X94931905Y-75995714D01*
X95815715Y-76552857D02*
X95484286Y-76552857D01*
X95650000Y-76552857D02*
X95650000Y-75772857D01*
X95594762Y-75884286D01*
X95539524Y-75958571D01*
X95484286Y-75995714D01*
X96036667Y-75847143D02*
X96064286Y-75810000D01*
X96119524Y-75772857D01*
X96257620Y-75772857D01*
X96312858Y-75810000D01*
X96340477Y-75847143D01*
X96368096Y-75921429D01*
X96368096Y-75995714D01*
X96340477Y-76107143D01*
X96009048Y-76552857D01*
X96368096Y-76552857D01*
X95263334Y-79092857D02*
X94931905Y-79092857D01*
X95097619Y-79092857D02*
X95097619Y-78312857D01*
X95042381Y-78424286D01*
X94987143Y-78498571D01*
X94931905Y-78535714D01*
X95815715Y-79092857D02*
X95484286Y-79092857D01*
X95650000Y-79092857D02*
X95650000Y-78312857D01*
X95594762Y-78424286D01*
X95539524Y-78498571D01*
X95484286Y-78535714D01*
X96312858Y-78312857D02*
X96202381Y-78312857D01*
X96147143Y-78350000D01*
X96119524Y-78387143D01*
X96064286Y-78498571D01*
X96036667Y-78647143D01*
X96036667Y-78944286D01*
X96064286Y-79018571D01*
X96091905Y-79055714D01*
X96147143Y-79092857D01*
X96257620Y-79092857D01*
X96312858Y-79055714D01*
X96340477Y-79018571D01*
X96368096Y-78944286D01*
X96368096Y-78758571D01*
X96340477Y-78684286D01*
X96312858Y-78647143D01*
X96257620Y-78610000D01*
X96147143Y-78610000D01*
X96091905Y-78647143D01*
X96064286Y-78684286D01*
X96036667Y-78758571D01*
X89134286Y-42752857D02*
X89023809Y-42752857D01*
X88968571Y-42790000D01*
X88940952Y-42827143D01*
X88885714Y-42938571D01*
X88858095Y-43087143D01*
X88858095Y-43384286D01*
X88885714Y-43458571D01*
X88913333Y-43495714D01*
X88968571Y-43532857D01*
X89079048Y-43532857D01*
X89134286Y-43495714D01*
X89161905Y-43458571D01*
X89189524Y-43384286D01*
X89189524Y-43198571D01*
X89161905Y-43124286D01*
X89134286Y-43087143D01*
X89079048Y-43050000D01*
X88968571Y-43050000D01*
X88913333Y-43087143D01*
X88885714Y-43124286D01*
X88858095Y-43198571D01*
X89741905Y-43532857D02*
X89410476Y-43532857D01*
X89576190Y-43532857D02*
X89576190Y-42752857D01*
X89520952Y-42864286D01*
X89465714Y-42938571D01*
X89410476Y-42975714D01*
X89134286Y-45292857D02*
X89023809Y-45292857D01*
X88968571Y-45330000D01*
X88940952Y-45367143D01*
X88885714Y-45478571D01*
X88858095Y-45627143D01*
X88858095Y-45924286D01*
X88885714Y-45998571D01*
X88913333Y-46035714D01*
X88968571Y-46072857D01*
X89079048Y-46072857D01*
X89134286Y-46035714D01*
X89161905Y-45998571D01*
X89189524Y-45924286D01*
X89189524Y-45738571D01*
X89161905Y-45664286D01*
X89134286Y-45627143D01*
X89079048Y-45590000D01*
X88968571Y-45590000D01*
X88913333Y-45627143D01*
X88885714Y-45664286D01*
X88858095Y-45738571D01*
X89714286Y-45292857D02*
X89438095Y-45292857D01*
X89410476Y-45664286D01*
X89438095Y-45627143D01*
X89493333Y-45590000D01*
X89631429Y-45590000D01*
X89686667Y-45627143D01*
X89714286Y-45664286D01*
X89741905Y-45738571D01*
X89741905Y-45924286D01*
X89714286Y-45998571D01*
X89686667Y-46035714D01*
X89631429Y-46072857D01*
X89493333Y-46072857D01*
X89438095Y-46035714D01*
X89410476Y-45998571D01*
X89134286Y-47832857D02*
X89023809Y-47832857D01*
X88968571Y-47870000D01*
X88940952Y-47907143D01*
X88885714Y-48018571D01*
X88858095Y-48167143D01*
X88858095Y-48464286D01*
X88885714Y-48538571D01*
X88913333Y-48575714D01*
X88968571Y-48612857D01*
X89079048Y-48612857D01*
X89134286Y-48575714D01*
X89161905Y-48538571D01*
X89189524Y-48464286D01*
X89189524Y-48278571D01*
X89161905Y-48204286D01*
X89134286Y-48167143D01*
X89079048Y-48130000D01*
X88968571Y-48130000D01*
X88913333Y-48167143D01*
X88885714Y-48204286D01*
X88858095Y-48278571D01*
X89465714Y-48612857D02*
X89576190Y-48612857D01*
X89631429Y-48575714D01*
X89659048Y-48538571D01*
X89714286Y-48427143D01*
X89741905Y-48278571D01*
X89741905Y-47981429D01*
X89714286Y-47907143D01*
X89686667Y-47870000D01*
X89631429Y-47832857D01*
X89520952Y-47832857D01*
X89465714Y-47870000D01*
X89438095Y-47907143D01*
X89410476Y-47981429D01*
X89410476Y-48167143D01*
X89438095Y-48241429D01*
X89465714Y-48278571D01*
X89520952Y-48315714D01*
X89631429Y-48315714D01*
X89686667Y-48278571D01*
X89714286Y-48241429D01*
X89741905Y-48167143D01*
X88830476Y-50372857D02*
X89217143Y-50372857D01*
X88968571Y-51152857D01*
X89382857Y-50372857D02*
X89741905Y-50372857D01*
X89548571Y-50670000D01*
X89631429Y-50670000D01*
X89686667Y-50707143D01*
X89714286Y-50744286D01*
X89741905Y-50818571D01*
X89741905Y-51004286D01*
X89714286Y-51078571D01*
X89686667Y-51115714D01*
X89631429Y-51152857D01*
X89465714Y-51152857D01*
X89410476Y-51115714D01*
X89382857Y-51078571D01*
X88830476Y-52912857D02*
X89217143Y-52912857D01*
X88968571Y-53692857D01*
X89382857Y-52912857D02*
X89769524Y-52912857D01*
X89520952Y-53692857D01*
X88968571Y-55787143D02*
X88913333Y-55750000D01*
X88885714Y-55712857D01*
X88858095Y-55638571D01*
X88858095Y-55601429D01*
X88885714Y-55527143D01*
X88913333Y-55490000D01*
X88968571Y-55452857D01*
X89079048Y-55452857D01*
X89134286Y-55490000D01*
X89161905Y-55527143D01*
X89189524Y-55601429D01*
X89189524Y-55638571D01*
X89161905Y-55712857D01*
X89134286Y-55750000D01*
X89079048Y-55787143D01*
X88968571Y-55787143D01*
X88913333Y-55824286D01*
X88885714Y-55861429D01*
X88858095Y-55935714D01*
X88858095Y-56084286D01*
X88885714Y-56158571D01*
X88913333Y-56195714D01*
X88968571Y-56232857D01*
X89079048Y-56232857D01*
X89134286Y-56195714D01*
X89161905Y-56158571D01*
X89189524Y-56084286D01*
X89189524Y-55935714D01*
X89161905Y-55861429D01*
X89134286Y-55824286D01*
X89079048Y-55787143D01*
X89741905Y-56232857D02*
X89410476Y-56232857D01*
X89576190Y-56232857D02*
X89576190Y-55452857D01*
X89520952Y-55564286D01*
X89465714Y-55638571D01*
X89410476Y-55675714D01*
X88968571Y-58327143D02*
X88913333Y-58290000D01*
X88885714Y-58252857D01*
X88858095Y-58178571D01*
X88858095Y-58141429D01*
X88885714Y-58067143D01*
X88913333Y-58030000D01*
X88968571Y-57992857D01*
X89079048Y-57992857D01*
X89134286Y-58030000D01*
X89161905Y-58067143D01*
X89189524Y-58141429D01*
X89189524Y-58178571D01*
X89161905Y-58252857D01*
X89134286Y-58290000D01*
X89079048Y-58327143D01*
X88968571Y-58327143D01*
X88913333Y-58364286D01*
X88885714Y-58401429D01*
X88858095Y-58475714D01*
X88858095Y-58624286D01*
X88885714Y-58698571D01*
X88913333Y-58735714D01*
X88968571Y-58772857D01*
X89079048Y-58772857D01*
X89134286Y-58735714D01*
X89161905Y-58698571D01*
X89189524Y-58624286D01*
X89189524Y-58475714D01*
X89161905Y-58401429D01*
X89134286Y-58364286D01*
X89079048Y-58327143D01*
X89714286Y-57992857D02*
X89438095Y-57992857D01*
X89410476Y-58364286D01*
X89438095Y-58327143D01*
X89493333Y-58290000D01*
X89631429Y-58290000D01*
X89686667Y-58327143D01*
X89714286Y-58364286D01*
X89741905Y-58438571D01*
X89741905Y-58624286D01*
X89714286Y-58698571D01*
X89686667Y-58735714D01*
X89631429Y-58772857D01*
X89493333Y-58772857D01*
X89438095Y-58735714D01*
X89410476Y-58698571D01*
X88968571Y-60867143D02*
X88913333Y-60830000D01*
X88885714Y-60792857D01*
X88858095Y-60718571D01*
X88858095Y-60681429D01*
X88885714Y-60607143D01*
X88913333Y-60570000D01*
X88968571Y-60532857D01*
X89079048Y-60532857D01*
X89134286Y-60570000D01*
X89161905Y-60607143D01*
X89189524Y-60681429D01*
X89189524Y-60718571D01*
X89161905Y-60792857D01*
X89134286Y-60830000D01*
X89079048Y-60867143D01*
X88968571Y-60867143D01*
X88913333Y-60904286D01*
X88885714Y-60941429D01*
X88858095Y-61015714D01*
X88858095Y-61164286D01*
X88885714Y-61238571D01*
X88913333Y-61275714D01*
X88968571Y-61312857D01*
X89079048Y-61312857D01*
X89134286Y-61275714D01*
X89161905Y-61238571D01*
X89189524Y-61164286D01*
X89189524Y-61015714D01*
X89161905Y-60941429D01*
X89134286Y-60904286D01*
X89079048Y-60867143D01*
X89465714Y-61312857D02*
X89576190Y-61312857D01*
X89631429Y-61275714D01*
X89659048Y-61238571D01*
X89714286Y-61127143D01*
X89741905Y-60978571D01*
X89741905Y-60681429D01*
X89714286Y-60607143D01*
X89686667Y-60570000D01*
X89631429Y-60532857D01*
X89520952Y-60532857D01*
X89465714Y-60570000D01*
X89438095Y-60607143D01*
X89410476Y-60681429D01*
X89410476Y-60867143D01*
X89438095Y-60941429D01*
X89465714Y-60978571D01*
X89520952Y-61015714D01*
X89631429Y-61015714D01*
X89686667Y-60978571D01*
X89714286Y-60941429D01*
X89741905Y-60867143D01*
X88913333Y-63852857D02*
X89023809Y-63852857D01*
X89079048Y-63815714D01*
X89106667Y-63778571D01*
X89161905Y-63667143D01*
X89189524Y-63518571D01*
X89189524Y-63221429D01*
X89161905Y-63147143D01*
X89134286Y-63110000D01*
X89079048Y-63072857D01*
X88968571Y-63072857D01*
X88913333Y-63110000D01*
X88885714Y-63147143D01*
X88858095Y-63221429D01*
X88858095Y-63407143D01*
X88885714Y-63481429D01*
X88913333Y-63518571D01*
X88968571Y-63555714D01*
X89079048Y-63555714D01*
X89134286Y-63518571D01*
X89161905Y-63481429D01*
X89189524Y-63407143D01*
X89382857Y-63072857D02*
X89741905Y-63072857D01*
X89548571Y-63370000D01*
X89631429Y-63370000D01*
X89686667Y-63407143D01*
X89714286Y-63444286D01*
X89741905Y-63518571D01*
X89741905Y-63704286D01*
X89714286Y-63778571D01*
X89686667Y-63815714D01*
X89631429Y-63852857D01*
X89465714Y-63852857D01*
X89410476Y-63815714D01*
X89382857Y-63778571D01*
X88913333Y-66392857D02*
X89023809Y-66392857D01*
X89079048Y-66355714D01*
X89106667Y-66318571D01*
X89161905Y-66207143D01*
X89189524Y-66058571D01*
X89189524Y-65761429D01*
X89161905Y-65687143D01*
X89134286Y-65650000D01*
X89079048Y-65612857D01*
X88968571Y-65612857D01*
X88913333Y-65650000D01*
X88885714Y-65687143D01*
X88858095Y-65761429D01*
X88858095Y-65947143D01*
X88885714Y-66021429D01*
X88913333Y-66058571D01*
X88968571Y-66095714D01*
X89079048Y-66095714D01*
X89134286Y-66058571D01*
X89161905Y-66021429D01*
X89189524Y-65947143D01*
X89382857Y-65612857D02*
X89769524Y-65612857D01*
X89520952Y-66392857D01*
X88913334Y-68932857D02*
X88581905Y-68932857D01*
X88747619Y-68932857D02*
X88747619Y-68152857D01*
X88692381Y-68264286D01*
X88637143Y-68338571D01*
X88581905Y-68375714D01*
X89272381Y-68152857D02*
X89327620Y-68152857D01*
X89382858Y-68190000D01*
X89410477Y-68227143D01*
X89438096Y-68301429D01*
X89465715Y-68450000D01*
X89465715Y-68635714D01*
X89438096Y-68784286D01*
X89410477Y-68858571D01*
X89382858Y-68895714D01*
X89327620Y-68932857D01*
X89272381Y-68932857D01*
X89217143Y-68895714D01*
X89189524Y-68858571D01*
X89161905Y-68784286D01*
X89134286Y-68635714D01*
X89134286Y-68450000D01*
X89161905Y-68301429D01*
X89189524Y-68227143D01*
X89217143Y-68190000D01*
X89272381Y-68152857D01*
X90018096Y-68932857D02*
X89686667Y-68932857D01*
X89852381Y-68932857D02*
X89852381Y-68152857D01*
X89797143Y-68264286D01*
X89741905Y-68338571D01*
X89686667Y-68375714D01*
X88913334Y-71472857D02*
X88581905Y-71472857D01*
X88747619Y-71472857D02*
X88747619Y-70692857D01*
X88692381Y-70804286D01*
X88637143Y-70878571D01*
X88581905Y-70915714D01*
X89272381Y-70692857D02*
X89327620Y-70692857D01*
X89382858Y-70730000D01*
X89410477Y-70767143D01*
X89438096Y-70841429D01*
X89465715Y-70990000D01*
X89465715Y-71175714D01*
X89438096Y-71324286D01*
X89410477Y-71398571D01*
X89382858Y-71435714D01*
X89327620Y-71472857D01*
X89272381Y-71472857D01*
X89217143Y-71435714D01*
X89189524Y-71398571D01*
X89161905Y-71324286D01*
X89134286Y-71175714D01*
X89134286Y-70990000D01*
X89161905Y-70841429D01*
X89189524Y-70767143D01*
X89217143Y-70730000D01*
X89272381Y-70692857D01*
X89990477Y-70692857D02*
X89714286Y-70692857D01*
X89686667Y-71064286D01*
X89714286Y-71027143D01*
X89769524Y-70990000D01*
X89907620Y-70990000D01*
X89962858Y-71027143D01*
X89990477Y-71064286D01*
X90018096Y-71138571D01*
X90018096Y-71324286D01*
X89990477Y-71398571D01*
X89962858Y-71435714D01*
X89907620Y-71472857D01*
X89769524Y-71472857D01*
X89714286Y-71435714D01*
X89686667Y-71398571D01*
X88913334Y-74012857D02*
X88581905Y-74012857D01*
X88747619Y-74012857D02*
X88747619Y-73232857D01*
X88692381Y-73344286D01*
X88637143Y-73418571D01*
X88581905Y-73455714D01*
X89272381Y-73232857D02*
X89327620Y-73232857D01*
X89382858Y-73270000D01*
X89410477Y-73307143D01*
X89438096Y-73381429D01*
X89465715Y-73530000D01*
X89465715Y-73715714D01*
X89438096Y-73864286D01*
X89410477Y-73938571D01*
X89382858Y-73975714D01*
X89327620Y-74012857D01*
X89272381Y-74012857D01*
X89217143Y-73975714D01*
X89189524Y-73938571D01*
X89161905Y-73864286D01*
X89134286Y-73715714D01*
X89134286Y-73530000D01*
X89161905Y-73381429D01*
X89189524Y-73307143D01*
X89217143Y-73270000D01*
X89272381Y-73232857D01*
X89741905Y-74012857D02*
X89852381Y-74012857D01*
X89907620Y-73975714D01*
X89935239Y-73938571D01*
X89990477Y-73827143D01*
X90018096Y-73678571D01*
X90018096Y-73381429D01*
X89990477Y-73307143D01*
X89962858Y-73270000D01*
X89907620Y-73232857D01*
X89797143Y-73232857D01*
X89741905Y-73270000D01*
X89714286Y-73307143D01*
X89686667Y-73381429D01*
X89686667Y-73567143D01*
X89714286Y-73641429D01*
X89741905Y-73678571D01*
X89797143Y-73715714D01*
X89907620Y-73715714D01*
X89962858Y-73678571D01*
X89990477Y-73641429D01*
X90018096Y-73567143D01*
X88913334Y-76552857D02*
X88581905Y-76552857D01*
X88747619Y-76552857D02*
X88747619Y-75772857D01*
X88692381Y-75884286D01*
X88637143Y-75958571D01*
X88581905Y-75995714D01*
X89465715Y-76552857D02*
X89134286Y-76552857D01*
X89300000Y-76552857D02*
X89300000Y-75772857D01*
X89244762Y-75884286D01*
X89189524Y-75958571D01*
X89134286Y-75995714D01*
X89659048Y-75772857D02*
X90018096Y-75772857D01*
X89824762Y-76070000D01*
X89907620Y-76070000D01*
X89962858Y-76107143D01*
X89990477Y-76144286D01*
X90018096Y-76218571D01*
X90018096Y-76404286D01*
X89990477Y-76478571D01*
X89962858Y-76515714D01*
X89907620Y-76552857D01*
X89741905Y-76552857D01*
X89686667Y-76515714D01*
X89659048Y-76478571D01*
X88913334Y-79092857D02*
X88581905Y-79092857D01*
X88747619Y-79092857D02*
X88747619Y-78312857D01*
X88692381Y-78424286D01*
X88637143Y-78498571D01*
X88581905Y-78535714D01*
X89465715Y-79092857D02*
X89134286Y-79092857D01*
X89300000Y-79092857D02*
X89300000Y-78312857D01*
X89244762Y-78424286D01*
X89189524Y-78498571D01*
X89134286Y-78535714D01*
X89659048Y-78312857D02*
X90045715Y-78312857D01*
X89797143Y-79092857D01*
X82784286Y-42752857D02*
X82673809Y-42752857D01*
X82618571Y-42790000D01*
X82590952Y-42827143D01*
X82535714Y-42938571D01*
X82508095Y-43087143D01*
X82508095Y-43384286D01*
X82535714Y-43458571D01*
X82563333Y-43495714D01*
X82618571Y-43532857D01*
X82729048Y-43532857D01*
X82784286Y-43495714D01*
X82811905Y-43458571D01*
X82839524Y-43384286D01*
X82839524Y-43198571D01*
X82811905Y-43124286D01*
X82784286Y-43087143D01*
X82729048Y-43050000D01*
X82618571Y-43050000D01*
X82563333Y-43087143D01*
X82535714Y-43124286D01*
X82508095Y-43198571D01*
X83060476Y-42827143D02*
X83088095Y-42790000D01*
X83143333Y-42752857D01*
X83281429Y-42752857D01*
X83336667Y-42790000D01*
X83364286Y-42827143D01*
X83391905Y-42901429D01*
X83391905Y-42975714D01*
X83364286Y-43087143D01*
X83032857Y-43532857D01*
X83391905Y-43532857D01*
X82784286Y-45292857D02*
X82673809Y-45292857D01*
X82618571Y-45330000D01*
X82590952Y-45367143D01*
X82535714Y-45478571D01*
X82508095Y-45627143D01*
X82508095Y-45924286D01*
X82535714Y-45998571D01*
X82563333Y-46035714D01*
X82618571Y-46072857D01*
X82729048Y-46072857D01*
X82784286Y-46035714D01*
X82811905Y-45998571D01*
X82839524Y-45924286D01*
X82839524Y-45738571D01*
X82811905Y-45664286D01*
X82784286Y-45627143D01*
X82729048Y-45590000D01*
X82618571Y-45590000D01*
X82563333Y-45627143D01*
X82535714Y-45664286D01*
X82508095Y-45738571D01*
X83336667Y-45292857D02*
X83226190Y-45292857D01*
X83170952Y-45330000D01*
X83143333Y-45367143D01*
X83088095Y-45478571D01*
X83060476Y-45627143D01*
X83060476Y-45924286D01*
X83088095Y-45998571D01*
X83115714Y-46035714D01*
X83170952Y-46072857D01*
X83281429Y-46072857D01*
X83336667Y-46035714D01*
X83364286Y-45998571D01*
X83391905Y-45924286D01*
X83391905Y-45738571D01*
X83364286Y-45664286D01*
X83336667Y-45627143D01*
X83281429Y-45590000D01*
X83170952Y-45590000D01*
X83115714Y-45627143D01*
X83088095Y-45664286D01*
X83060476Y-45738571D01*
X82480476Y-47832857D02*
X82867143Y-47832857D01*
X82618571Y-48612857D01*
X83198571Y-47832857D02*
X83253810Y-47832857D01*
X83309048Y-47870000D01*
X83336667Y-47907143D01*
X83364286Y-47981429D01*
X83391905Y-48130000D01*
X83391905Y-48315714D01*
X83364286Y-48464286D01*
X83336667Y-48538571D01*
X83309048Y-48575714D01*
X83253810Y-48612857D01*
X83198571Y-48612857D01*
X83143333Y-48575714D01*
X83115714Y-48538571D01*
X83088095Y-48464286D01*
X83060476Y-48315714D01*
X83060476Y-48130000D01*
X83088095Y-47981429D01*
X83115714Y-47907143D01*
X83143333Y-47870000D01*
X83198571Y-47832857D01*
X82480476Y-50372857D02*
X82867143Y-50372857D01*
X82618571Y-51152857D01*
X83336667Y-50632857D02*
X83336667Y-51152857D01*
X83198571Y-50335714D02*
X83060476Y-50892857D01*
X83419524Y-50892857D01*
X82480476Y-52912857D02*
X82867143Y-52912857D01*
X82618571Y-53692857D01*
X83170952Y-53247143D02*
X83115714Y-53210000D01*
X83088095Y-53172857D01*
X83060476Y-53098571D01*
X83060476Y-53061429D01*
X83088095Y-52987143D01*
X83115714Y-52950000D01*
X83170952Y-52912857D01*
X83281429Y-52912857D01*
X83336667Y-52950000D01*
X83364286Y-52987143D01*
X83391905Y-53061429D01*
X83391905Y-53098571D01*
X83364286Y-53172857D01*
X83336667Y-53210000D01*
X83281429Y-53247143D01*
X83170952Y-53247143D01*
X83115714Y-53284286D01*
X83088095Y-53321429D01*
X83060476Y-53395714D01*
X83060476Y-53544286D01*
X83088095Y-53618571D01*
X83115714Y-53655714D01*
X83170952Y-53692857D01*
X83281429Y-53692857D01*
X83336667Y-53655714D01*
X83364286Y-53618571D01*
X83391905Y-53544286D01*
X83391905Y-53395714D01*
X83364286Y-53321429D01*
X83336667Y-53284286D01*
X83281429Y-53247143D01*
X82618571Y-55787143D02*
X82563333Y-55750000D01*
X82535714Y-55712857D01*
X82508095Y-55638571D01*
X82508095Y-55601429D01*
X82535714Y-55527143D01*
X82563333Y-55490000D01*
X82618571Y-55452857D01*
X82729048Y-55452857D01*
X82784286Y-55490000D01*
X82811905Y-55527143D01*
X82839524Y-55601429D01*
X82839524Y-55638571D01*
X82811905Y-55712857D01*
X82784286Y-55750000D01*
X82729048Y-55787143D01*
X82618571Y-55787143D01*
X82563333Y-55824286D01*
X82535714Y-55861429D01*
X82508095Y-55935714D01*
X82508095Y-56084286D01*
X82535714Y-56158571D01*
X82563333Y-56195714D01*
X82618571Y-56232857D01*
X82729048Y-56232857D01*
X82784286Y-56195714D01*
X82811905Y-56158571D01*
X82839524Y-56084286D01*
X82839524Y-55935714D01*
X82811905Y-55861429D01*
X82784286Y-55824286D01*
X82729048Y-55787143D01*
X83060476Y-55527143D02*
X83088095Y-55490000D01*
X83143333Y-55452857D01*
X83281429Y-55452857D01*
X83336667Y-55490000D01*
X83364286Y-55527143D01*
X83391905Y-55601429D01*
X83391905Y-55675714D01*
X83364286Y-55787143D01*
X83032857Y-56232857D01*
X83391905Y-56232857D01*
X82618571Y-58327143D02*
X82563333Y-58290000D01*
X82535714Y-58252857D01*
X82508095Y-58178571D01*
X82508095Y-58141429D01*
X82535714Y-58067143D01*
X82563333Y-58030000D01*
X82618571Y-57992857D01*
X82729048Y-57992857D01*
X82784286Y-58030000D01*
X82811905Y-58067143D01*
X82839524Y-58141429D01*
X82839524Y-58178571D01*
X82811905Y-58252857D01*
X82784286Y-58290000D01*
X82729048Y-58327143D01*
X82618571Y-58327143D01*
X82563333Y-58364286D01*
X82535714Y-58401429D01*
X82508095Y-58475714D01*
X82508095Y-58624286D01*
X82535714Y-58698571D01*
X82563333Y-58735714D01*
X82618571Y-58772857D01*
X82729048Y-58772857D01*
X82784286Y-58735714D01*
X82811905Y-58698571D01*
X82839524Y-58624286D01*
X82839524Y-58475714D01*
X82811905Y-58401429D01*
X82784286Y-58364286D01*
X82729048Y-58327143D01*
X83336667Y-57992857D02*
X83226190Y-57992857D01*
X83170952Y-58030000D01*
X83143333Y-58067143D01*
X83088095Y-58178571D01*
X83060476Y-58327143D01*
X83060476Y-58624286D01*
X83088095Y-58698571D01*
X83115714Y-58735714D01*
X83170952Y-58772857D01*
X83281429Y-58772857D01*
X83336667Y-58735714D01*
X83364286Y-58698571D01*
X83391905Y-58624286D01*
X83391905Y-58438571D01*
X83364286Y-58364286D01*
X83336667Y-58327143D01*
X83281429Y-58290000D01*
X83170952Y-58290000D01*
X83115714Y-58327143D01*
X83088095Y-58364286D01*
X83060476Y-58438571D01*
X82563333Y-61312857D02*
X82673809Y-61312857D01*
X82729048Y-61275714D01*
X82756667Y-61238571D01*
X82811905Y-61127143D01*
X82839524Y-60978571D01*
X82839524Y-60681429D01*
X82811905Y-60607143D01*
X82784286Y-60570000D01*
X82729048Y-60532857D01*
X82618571Y-60532857D01*
X82563333Y-60570000D01*
X82535714Y-60607143D01*
X82508095Y-60681429D01*
X82508095Y-60867143D01*
X82535714Y-60941429D01*
X82563333Y-60978571D01*
X82618571Y-61015714D01*
X82729048Y-61015714D01*
X82784286Y-60978571D01*
X82811905Y-60941429D01*
X82839524Y-60867143D01*
X83198571Y-60532857D02*
X83253810Y-60532857D01*
X83309048Y-60570000D01*
X83336667Y-60607143D01*
X83364286Y-60681429D01*
X83391905Y-60830000D01*
X83391905Y-61015714D01*
X83364286Y-61164286D01*
X83336667Y-61238571D01*
X83309048Y-61275714D01*
X83253810Y-61312857D01*
X83198571Y-61312857D01*
X83143333Y-61275714D01*
X83115714Y-61238571D01*
X83088095Y-61164286D01*
X83060476Y-61015714D01*
X83060476Y-60830000D01*
X83088095Y-60681429D01*
X83115714Y-60607143D01*
X83143333Y-60570000D01*
X83198571Y-60532857D01*
X82563333Y-63852857D02*
X82673809Y-63852857D01*
X82729048Y-63815714D01*
X82756667Y-63778571D01*
X82811905Y-63667143D01*
X82839524Y-63518571D01*
X82839524Y-63221429D01*
X82811905Y-63147143D01*
X82784286Y-63110000D01*
X82729048Y-63072857D01*
X82618571Y-63072857D01*
X82563333Y-63110000D01*
X82535714Y-63147143D01*
X82508095Y-63221429D01*
X82508095Y-63407143D01*
X82535714Y-63481429D01*
X82563333Y-63518571D01*
X82618571Y-63555714D01*
X82729048Y-63555714D01*
X82784286Y-63518571D01*
X82811905Y-63481429D01*
X82839524Y-63407143D01*
X83336667Y-63332857D02*
X83336667Y-63852857D01*
X83198571Y-63035714D02*
X83060476Y-63592857D01*
X83419524Y-63592857D01*
X82563333Y-66392857D02*
X82673809Y-66392857D01*
X82729048Y-66355714D01*
X82756667Y-66318571D01*
X82811905Y-66207143D01*
X82839524Y-66058571D01*
X82839524Y-65761429D01*
X82811905Y-65687143D01*
X82784286Y-65650000D01*
X82729048Y-65612857D01*
X82618571Y-65612857D01*
X82563333Y-65650000D01*
X82535714Y-65687143D01*
X82508095Y-65761429D01*
X82508095Y-65947143D01*
X82535714Y-66021429D01*
X82563333Y-66058571D01*
X82618571Y-66095714D01*
X82729048Y-66095714D01*
X82784286Y-66058571D01*
X82811905Y-66021429D01*
X82839524Y-65947143D01*
X83170952Y-65947143D02*
X83115714Y-65910000D01*
X83088095Y-65872857D01*
X83060476Y-65798571D01*
X83060476Y-65761429D01*
X83088095Y-65687143D01*
X83115714Y-65650000D01*
X83170952Y-65612857D01*
X83281429Y-65612857D01*
X83336667Y-65650000D01*
X83364286Y-65687143D01*
X83391905Y-65761429D01*
X83391905Y-65798571D01*
X83364286Y-65872857D01*
X83336667Y-65910000D01*
X83281429Y-65947143D01*
X83170952Y-65947143D01*
X83115714Y-65984286D01*
X83088095Y-66021429D01*
X83060476Y-66095714D01*
X83060476Y-66244286D01*
X83088095Y-66318571D01*
X83115714Y-66355714D01*
X83170952Y-66392857D01*
X83281429Y-66392857D01*
X83336667Y-66355714D01*
X83364286Y-66318571D01*
X83391905Y-66244286D01*
X83391905Y-66095714D01*
X83364286Y-66021429D01*
X83336667Y-65984286D01*
X83281429Y-65947143D01*
X82563334Y-68932857D02*
X82231905Y-68932857D01*
X82397619Y-68932857D02*
X82397619Y-68152857D01*
X82342381Y-68264286D01*
X82287143Y-68338571D01*
X82231905Y-68375714D01*
X82922381Y-68152857D02*
X82977620Y-68152857D01*
X83032858Y-68190000D01*
X83060477Y-68227143D01*
X83088096Y-68301429D01*
X83115715Y-68450000D01*
X83115715Y-68635714D01*
X83088096Y-68784286D01*
X83060477Y-68858571D01*
X83032858Y-68895714D01*
X82977620Y-68932857D01*
X82922381Y-68932857D01*
X82867143Y-68895714D01*
X82839524Y-68858571D01*
X82811905Y-68784286D01*
X82784286Y-68635714D01*
X82784286Y-68450000D01*
X82811905Y-68301429D01*
X82839524Y-68227143D01*
X82867143Y-68190000D01*
X82922381Y-68152857D01*
X83336667Y-68227143D02*
X83364286Y-68190000D01*
X83419524Y-68152857D01*
X83557620Y-68152857D01*
X83612858Y-68190000D01*
X83640477Y-68227143D01*
X83668096Y-68301429D01*
X83668096Y-68375714D01*
X83640477Y-68487143D01*
X83309048Y-68932857D01*
X83668096Y-68932857D01*
X82563334Y-71472857D02*
X82231905Y-71472857D01*
X82397619Y-71472857D02*
X82397619Y-70692857D01*
X82342381Y-70804286D01*
X82287143Y-70878571D01*
X82231905Y-70915714D01*
X82922381Y-70692857D02*
X82977620Y-70692857D01*
X83032858Y-70730000D01*
X83060477Y-70767143D01*
X83088096Y-70841429D01*
X83115715Y-70990000D01*
X83115715Y-71175714D01*
X83088096Y-71324286D01*
X83060477Y-71398571D01*
X83032858Y-71435714D01*
X82977620Y-71472857D01*
X82922381Y-71472857D01*
X82867143Y-71435714D01*
X82839524Y-71398571D01*
X82811905Y-71324286D01*
X82784286Y-71175714D01*
X82784286Y-70990000D01*
X82811905Y-70841429D01*
X82839524Y-70767143D01*
X82867143Y-70730000D01*
X82922381Y-70692857D01*
X83612858Y-70692857D02*
X83502381Y-70692857D01*
X83447143Y-70730000D01*
X83419524Y-70767143D01*
X83364286Y-70878571D01*
X83336667Y-71027143D01*
X83336667Y-71324286D01*
X83364286Y-71398571D01*
X83391905Y-71435714D01*
X83447143Y-71472857D01*
X83557620Y-71472857D01*
X83612858Y-71435714D01*
X83640477Y-71398571D01*
X83668096Y-71324286D01*
X83668096Y-71138571D01*
X83640477Y-71064286D01*
X83612858Y-71027143D01*
X83557620Y-70990000D01*
X83447143Y-70990000D01*
X83391905Y-71027143D01*
X83364286Y-71064286D01*
X83336667Y-71138571D01*
X82563334Y-74012857D02*
X82231905Y-74012857D01*
X82397619Y-74012857D02*
X82397619Y-73232857D01*
X82342381Y-73344286D01*
X82287143Y-73418571D01*
X82231905Y-73455714D01*
X83115715Y-74012857D02*
X82784286Y-74012857D01*
X82950000Y-74012857D02*
X82950000Y-73232857D01*
X82894762Y-73344286D01*
X82839524Y-73418571D01*
X82784286Y-73455714D01*
X83474762Y-73232857D02*
X83530001Y-73232857D01*
X83585239Y-73270000D01*
X83612858Y-73307143D01*
X83640477Y-73381429D01*
X83668096Y-73530000D01*
X83668096Y-73715714D01*
X83640477Y-73864286D01*
X83612858Y-73938571D01*
X83585239Y-73975714D01*
X83530001Y-74012857D01*
X83474762Y-74012857D01*
X83419524Y-73975714D01*
X83391905Y-73938571D01*
X83364286Y-73864286D01*
X83336667Y-73715714D01*
X83336667Y-73530000D01*
X83364286Y-73381429D01*
X83391905Y-73307143D01*
X83419524Y-73270000D01*
X83474762Y-73232857D01*
X82563334Y-76552857D02*
X82231905Y-76552857D01*
X82397619Y-76552857D02*
X82397619Y-75772857D01*
X82342381Y-75884286D01*
X82287143Y-75958571D01*
X82231905Y-75995714D01*
X83115715Y-76552857D02*
X82784286Y-76552857D01*
X82950000Y-76552857D02*
X82950000Y-75772857D01*
X82894762Y-75884286D01*
X82839524Y-75958571D01*
X82784286Y-75995714D01*
X83612858Y-76032857D02*
X83612858Y-76552857D01*
X83474762Y-75735714D02*
X83336667Y-76292857D01*
X83695715Y-76292857D01*
X82563334Y-79092857D02*
X82231905Y-79092857D01*
X82397619Y-79092857D02*
X82397619Y-78312857D01*
X82342381Y-78424286D01*
X82287143Y-78498571D01*
X82231905Y-78535714D01*
X83115715Y-79092857D02*
X82784286Y-79092857D01*
X82950000Y-79092857D02*
X82950000Y-78312857D01*
X82894762Y-78424286D01*
X82839524Y-78498571D01*
X82784286Y-78535714D01*
X83447143Y-78647143D02*
X83391905Y-78610000D01*
X83364286Y-78572857D01*
X83336667Y-78498571D01*
X83336667Y-78461429D01*
X83364286Y-78387143D01*
X83391905Y-78350000D01*
X83447143Y-78312857D01*
X83557620Y-78312857D01*
X83612858Y-78350000D01*
X83640477Y-78387143D01*
X83668096Y-78461429D01*
X83668096Y-78498571D01*
X83640477Y-78572857D01*
X83612858Y-78610000D01*
X83557620Y-78647143D01*
X83447143Y-78647143D01*
X83391905Y-78684286D01*
X83364286Y-78721429D01*
X83336667Y-78795714D01*
X83336667Y-78944286D01*
X83364286Y-79018571D01*
X83391905Y-79055714D01*
X83447143Y-79092857D01*
X83557620Y-79092857D01*
X83612858Y-79055714D01*
X83640477Y-79018571D01*
X83668096Y-78944286D01*
X83668096Y-78795714D01*
X83640477Y-78721429D01*
X83612858Y-78684286D01*
X83557620Y-78647143D01*
X51061905Y-42752857D02*
X50785714Y-42752857D01*
X50758095Y-43124286D01*
X50785714Y-43087143D01*
X50840952Y-43050000D01*
X50979048Y-43050000D01*
X51034286Y-43087143D01*
X51061905Y-43124286D01*
X51089524Y-43198571D01*
X51089524Y-43384286D01*
X51061905Y-43458571D01*
X51034286Y-43495714D01*
X50979048Y-43532857D01*
X50840952Y-43532857D01*
X50785714Y-43495714D01*
X50758095Y-43458571D01*
X51365714Y-43532857D02*
X51476190Y-43532857D01*
X51531429Y-43495714D01*
X51559048Y-43458571D01*
X51614286Y-43347143D01*
X51641905Y-43198571D01*
X51641905Y-42901429D01*
X51614286Y-42827143D01*
X51586667Y-42790000D01*
X51531429Y-42752857D01*
X51420952Y-42752857D01*
X51365714Y-42790000D01*
X51338095Y-42827143D01*
X51310476Y-42901429D01*
X51310476Y-43087143D01*
X51338095Y-43161429D01*
X51365714Y-43198571D01*
X51420952Y-43235714D01*
X51531429Y-43235714D01*
X51586667Y-43198571D01*
X51614286Y-43161429D01*
X51641905Y-43087143D01*
X51061905Y-45292857D02*
X50785714Y-45292857D01*
X50758095Y-45664286D01*
X50785714Y-45627143D01*
X50840952Y-45590000D01*
X50979048Y-45590000D01*
X51034286Y-45627143D01*
X51061905Y-45664286D01*
X51089524Y-45738571D01*
X51089524Y-45924286D01*
X51061905Y-45998571D01*
X51034286Y-46035714D01*
X50979048Y-46072857D01*
X50840952Y-46072857D01*
X50785714Y-46035714D01*
X50758095Y-45998571D01*
X51614286Y-45292857D02*
X51338095Y-45292857D01*
X51310476Y-45664286D01*
X51338095Y-45627143D01*
X51393333Y-45590000D01*
X51531429Y-45590000D01*
X51586667Y-45627143D01*
X51614286Y-45664286D01*
X51641905Y-45738571D01*
X51641905Y-45924286D01*
X51614286Y-45998571D01*
X51586667Y-46035714D01*
X51531429Y-46072857D01*
X51393333Y-46072857D01*
X51338095Y-46035714D01*
X51310476Y-45998571D01*
X51061905Y-47832857D02*
X50785714Y-47832857D01*
X50758095Y-48204286D01*
X50785714Y-48167143D01*
X50840952Y-48130000D01*
X50979048Y-48130000D01*
X51034286Y-48167143D01*
X51061905Y-48204286D01*
X51089524Y-48278571D01*
X51089524Y-48464286D01*
X51061905Y-48538571D01*
X51034286Y-48575714D01*
X50979048Y-48612857D01*
X50840952Y-48612857D01*
X50785714Y-48575714D01*
X50758095Y-48538571D01*
X51641905Y-48612857D02*
X51310476Y-48612857D01*
X51476190Y-48612857D02*
X51476190Y-47832857D01*
X51420952Y-47944286D01*
X51365714Y-48018571D01*
X51310476Y-48055714D01*
X51034286Y-50632857D02*
X51034286Y-51152857D01*
X50896190Y-50335714D02*
X50758095Y-50892857D01*
X51117143Y-50892857D01*
X51282857Y-50372857D02*
X51669524Y-50372857D01*
X51420952Y-51152857D01*
X51034286Y-53172857D02*
X51034286Y-53692857D01*
X50896190Y-52875714D02*
X50758095Y-53432857D01*
X51117143Y-53432857D01*
X51282857Y-52912857D02*
X51641905Y-52912857D01*
X51448571Y-53210000D01*
X51531429Y-53210000D01*
X51586667Y-53247143D01*
X51614286Y-53284286D01*
X51641905Y-53358571D01*
X51641905Y-53544286D01*
X51614286Y-53618571D01*
X51586667Y-53655714D01*
X51531429Y-53692857D01*
X51365714Y-53692857D01*
X51310476Y-53655714D01*
X51282857Y-53618571D01*
X50730476Y-55452857D02*
X51089524Y-55452857D01*
X50896190Y-55750000D01*
X50979048Y-55750000D01*
X51034286Y-55787143D01*
X51061905Y-55824286D01*
X51089524Y-55898571D01*
X51089524Y-56084286D01*
X51061905Y-56158571D01*
X51034286Y-56195714D01*
X50979048Y-56232857D01*
X50813333Y-56232857D01*
X50758095Y-56195714D01*
X50730476Y-56158571D01*
X51365714Y-56232857D02*
X51476190Y-56232857D01*
X51531429Y-56195714D01*
X51559048Y-56158571D01*
X51614286Y-56047143D01*
X51641905Y-55898571D01*
X51641905Y-55601429D01*
X51614286Y-55527143D01*
X51586667Y-55490000D01*
X51531429Y-55452857D01*
X51420952Y-55452857D01*
X51365714Y-55490000D01*
X51338095Y-55527143D01*
X51310476Y-55601429D01*
X51310476Y-55787143D01*
X51338095Y-55861429D01*
X51365714Y-55898571D01*
X51420952Y-55935714D01*
X51531429Y-55935714D01*
X51586667Y-55898571D01*
X51614286Y-55861429D01*
X51641905Y-55787143D01*
X50730476Y-57992857D02*
X51089524Y-57992857D01*
X50896190Y-58290000D01*
X50979048Y-58290000D01*
X51034286Y-58327143D01*
X51061905Y-58364286D01*
X51089524Y-58438571D01*
X51089524Y-58624286D01*
X51061905Y-58698571D01*
X51034286Y-58735714D01*
X50979048Y-58772857D01*
X50813333Y-58772857D01*
X50758095Y-58735714D01*
X50730476Y-58698571D01*
X51614286Y-57992857D02*
X51338095Y-57992857D01*
X51310476Y-58364286D01*
X51338095Y-58327143D01*
X51393333Y-58290000D01*
X51531429Y-58290000D01*
X51586667Y-58327143D01*
X51614286Y-58364286D01*
X51641905Y-58438571D01*
X51641905Y-58624286D01*
X51614286Y-58698571D01*
X51586667Y-58735714D01*
X51531429Y-58772857D01*
X51393333Y-58772857D01*
X51338095Y-58735714D01*
X51310476Y-58698571D01*
X50730476Y-60532857D02*
X51089524Y-60532857D01*
X50896190Y-60830000D01*
X50979048Y-60830000D01*
X51034286Y-60867143D01*
X51061905Y-60904286D01*
X51089524Y-60978571D01*
X51089524Y-61164286D01*
X51061905Y-61238571D01*
X51034286Y-61275714D01*
X50979048Y-61312857D01*
X50813333Y-61312857D01*
X50758095Y-61275714D01*
X50730476Y-61238571D01*
X51641905Y-61312857D02*
X51310476Y-61312857D01*
X51476190Y-61312857D02*
X51476190Y-60532857D01*
X51420952Y-60644286D01*
X51365714Y-60718571D01*
X51310476Y-60755714D01*
X50758095Y-63147143D02*
X50785714Y-63110000D01*
X50840952Y-63072857D01*
X50979048Y-63072857D01*
X51034286Y-63110000D01*
X51061905Y-63147143D01*
X51089524Y-63221429D01*
X51089524Y-63295714D01*
X51061905Y-63407143D01*
X50730476Y-63852857D01*
X51089524Y-63852857D01*
X51282857Y-63072857D02*
X51669524Y-63072857D01*
X51420952Y-63852857D01*
X50758095Y-65687143D02*
X50785714Y-65650000D01*
X50840952Y-65612857D01*
X50979048Y-65612857D01*
X51034286Y-65650000D01*
X51061905Y-65687143D01*
X51089524Y-65761429D01*
X51089524Y-65835714D01*
X51061905Y-65947143D01*
X50730476Y-66392857D01*
X51089524Y-66392857D01*
X51282857Y-65612857D02*
X51641905Y-65612857D01*
X51448571Y-65910000D01*
X51531429Y-65910000D01*
X51586667Y-65947143D01*
X51614286Y-65984286D01*
X51641905Y-66058571D01*
X51641905Y-66244286D01*
X51614286Y-66318571D01*
X51586667Y-66355714D01*
X51531429Y-66392857D01*
X51365714Y-66392857D01*
X51310476Y-66355714D01*
X51282857Y-66318571D01*
X51089524Y-68932857D02*
X50758095Y-68932857D01*
X50923809Y-68932857D02*
X50923809Y-68152857D01*
X50868571Y-68264286D01*
X50813333Y-68338571D01*
X50758095Y-68375714D01*
X51365714Y-68932857D02*
X51476190Y-68932857D01*
X51531429Y-68895714D01*
X51559048Y-68858571D01*
X51614286Y-68747143D01*
X51641905Y-68598571D01*
X51641905Y-68301429D01*
X51614286Y-68227143D01*
X51586667Y-68190000D01*
X51531429Y-68152857D01*
X51420952Y-68152857D01*
X51365714Y-68190000D01*
X51338095Y-68227143D01*
X51310476Y-68301429D01*
X51310476Y-68487143D01*
X51338095Y-68561429D01*
X51365714Y-68598571D01*
X51420952Y-68635714D01*
X51531429Y-68635714D01*
X51586667Y-68598571D01*
X51614286Y-68561429D01*
X51641905Y-68487143D01*
X51089524Y-71472857D02*
X50758095Y-71472857D01*
X50923809Y-71472857D02*
X50923809Y-70692857D01*
X50868571Y-70804286D01*
X50813333Y-70878571D01*
X50758095Y-70915714D01*
X51614286Y-70692857D02*
X51338095Y-70692857D01*
X51310476Y-71064286D01*
X51338095Y-71027143D01*
X51393333Y-70990000D01*
X51531429Y-70990000D01*
X51586667Y-71027143D01*
X51614286Y-71064286D01*
X51641905Y-71138571D01*
X51641905Y-71324286D01*
X51614286Y-71398571D01*
X51586667Y-71435714D01*
X51531429Y-71472857D01*
X51393333Y-71472857D01*
X51338095Y-71435714D01*
X51310476Y-71398571D01*
X51089524Y-74012857D02*
X50758095Y-74012857D01*
X50923809Y-74012857D02*
X50923809Y-73232857D01*
X50868571Y-73344286D01*
X50813333Y-73418571D01*
X50758095Y-73455714D01*
X51641905Y-74012857D02*
X51310476Y-74012857D01*
X51476190Y-74012857D02*
X51476190Y-73232857D01*
X51420952Y-73344286D01*
X51365714Y-73418571D01*
X51310476Y-73455714D01*
X51006667Y-75772857D02*
X51393334Y-75772857D01*
X51144762Y-76552857D01*
X51006667Y-78312857D02*
X51365715Y-78312857D01*
X51172381Y-78610000D01*
X51255239Y-78610000D01*
X51310477Y-78647143D01*
X51338096Y-78684286D01*
X51365715Y-78758571D01*
X51365715Y-78944286D01*
X51338096Y-79018571D01*
X51310477Y-79055714D01*
X51255239Y-79092857D01*
X51089524Y-79092857D01*
X51034286Y-79055714D01*
X51006667Y-79018571D01*
X57411905Y-42752857D02*
X57135714Y-42752857D01*
X57108095Y-43124286D01*
X57135714Y-43087143D01*
X57190952Y-43050000D01*
X57329048Y-43050000D01*
X57384286Y-43087143D01*
X57411905Y-43124286D01*
X57439524Y-43198571D01*
X57439524Y-43384286D01*
X57411905Y-43458571D01*
X57384286Y-43495714D01*
X57329048Y-43532857D01*
X57190952Y-43532857D01*
X57135714Y-43495714D01*
X57108095Y-43458571D01*
X57770952Y-43087143D02*
X57715714Y-43050000D01*
X57688095Y-43012857D01*
X57660476Y-42938571D01*
X57660476Y-42901429D01*
X57688095Y-42827143D01*
X57715714Y-42790000D01*
X57770952Y-42752857D01*
X57881429Y-42752857D01*
X57936667Y-42790000D01*
X57964286Y-42827143D01*
X57991905Y-42901429D01*
X57991905Y-42938571D01*
X57964286Y-43012857D01*
X57936667Y-43050000D01*
X57881429Y-43087143D01*
X57770952Y-43087143D01*
X57715714Y-43124286D01*
X57688095Y-43161429D01*
X57660476Y-43235714D01*
X57660476Y-43384286D01*
X57688095Y-43458571D01*
X57715714Y-43495714D01*
X57770952Y-43532857D01*
X57881429Y-43532857D01*
X57936667Y-43495714D01*
X57964286Y-43458571D01*
X57991905Y-43384286D01*
X57991905Y-43235714D01*
X57964286Y-43161429D01*
X57936667Y-43124286D01*
X57881429Y-43087143D01*
X57411905Y-45292857D02*
X57135714Y-45292857D01*
X57108095Y-45664286D01*
X57135714Y-45627143D01*
X57190952Y-45590000D01*
X57329048Y-45590000D01*
X57384286Y-45627143D01*
X57411905Y-45664286D01*
X57439524Y-45738571D01*
X57439524Y-45924286D01*
X57411905Y-45998571D01*
X57384286Y-46035714D01*
X57329048Y-46072857D01*
X57190952Y-46072857D01*
X57135714Y-46035714D01*
X57108095Y-45998571D01*
X57936667Y-45552857D02*
X57936667Y-46072857D01*
X57798571Y-45255714D02*
X57660476Y-45812857D01*
X58019524Y-45812857D01*
X57411905Y-47832857D02*
X57135714Y-47832857D01*
X57108095Y-48204286D01*
X57135714Y-48167143D01*
X57190952Y-48130000D01*
X57329048Y-48130000D01*
X57384286Y-48167143D01*
X57411905Y-48204286D01*
X57439524Y-48278571D01*
X57439524Y-48464286D01*
X57411905Y-48538571D01*
X57384286Y-48575714D01*
X57329048Y-48612857D01*
X57190952Y-48612857D01*
X57135714Y-48575714D01*
X57108095Y-48538571D01*
X57798571Y-47832857D02*
X57853810Y-47832857D01*
X57909048Y-47870000D01*
X57936667Y-47907143D01*
X57964286Y-47981429D01*
X57991905Y-48130000D01*
X57991905Y-48315714D01*
X57964286Y-48464286D01*
X57936667Y-48538571D01*
X57909048Y-48575714D01*
X57853810Y-48612857D01*
X57798571Y-48612857D01*
X57743333Y-48575714D01*
X57715714Y-48538571D01*
X57688095Y-48464286D01*
X57660476Y-48315714D01*
X57660476Y-48130000D01*
X57688095Y-47981429D01*
X57715714Y-47907143D01*
X57743333Y-47870000D01*
X57798571Y-47832857D01*
X57384286Y-50632857D02*
X57384286Y-51152857D01*
X57246190Y-50335714D02*
X57108095Y-50892857D01*
X57467143Y-50892857D01*
X57936667Y-50372857D02*
X57826190Y-50372857D01*
X57770952Y-50410000D01*
X57743333Y-50447143D01*
X57688095Y-50558571D01*
X57660476Y-50707143D01*
X57660476Y-51004286D01*
X57688095Y-51078571D01*
X57715714Y-51115714D01*
X57770952Y-51152857D01*
X57881429Y-51152857D01*
X57936667Y-51115714D01*
X57964286Y-51078571D01*
X57991905Y-51004286D01*
X57991905Y-50818571D01*
X57964286Y-50744286D01*
X57936667Y-50707143D01*
X57881429Y-50670000D01*
X57770952Y-50670000D01*
X57715714Y-50707143D01*
X57688095Y-50744286D01*
X57660476Y-50818571D01*
X57384286Y-53172857D02*
X57384286Y-53692857D01*
X57246190Y-52875714D02*
X57108095Y-53432857D01*
X57467143Y-53432857D01*
X57660476Y-52987143D02*
X57688095Y-52950000D01*
X57743333Y-52912857D01*
X57881429Y-52912857D01*
X57936667Y-52950000D01*
X57964286Y-52987143D01*
X57991905Y-53061429D01*
X57991905Y-53135714D01*
X57964286Y-53247143D01*
X57632857Y-53692857D01*
X57991905Y-53692857D01*
X57080476Y-55452857D02*
X57439524Y-55452857D01*
X57246190Y-55750000D01*
X57329048Y-55750000D01*
X57384286Y-55787143D01*
X57411905Y-55824286D01*
X57439524Y-55898571D01*
X57439524Y-56084286D01*
X57411905Y-56158571D01*
X57384286Y-56195714D01*
X57329048Y-56232857D01*
X57163333Y-56232857D01*
X57108095Y-56195714D01*
X57080476Y-56158571D01*
X57770952Y-55787143D02*
X57715714Y-55750000D01*
X57688095Y-55712857D01*
X57660476Y-55638571D01*
X57660476Y-55601429D01*
X57688095Y-55527143D01*
X57715714Y-55490000D01*
X57770952Y-55452857D01*
X57881429Y-55452857D01*
X57936667Y-55490000D01*
X57964286Y-55527143D01*
X57991905Y-55601429D01*
X57991905Y-55638571D01*
X57964286Y-55712857D01*
X57936667Y-55750000D01*
X57881429Y-55787143D01*
X57770952Y-55787143D01*
X57715714Y-55824286D01*
X57688095Y-55861429D01*
X57660476Y-55935714D01*
X57660476Y-56084286D01*
X57688095Y-56158571D01*
X57715714Y-56195714D01*
X57770952Y-56232857D01*
X57881429Y-56232857D01*
X57936667Y-56195714D01*
X57964286Y-56158571D01*
X57991905Y-56084286D01*
X57991905Y-55935714D01*
X57964286Y-55861429D01*
X57936667Y-55824286D01*
X57881429Y-55787143D01*
X57080476Y-57992857D02*
X57439524Y-57992857D01*
X57246190Y-58290000D01*
X57329048Y-58290000D01*
X57384286Y-58327143D01*
X57411905Y-58364286D01*
X57439524Y-58438571D01*
X57439524Y-58624286D01*
X57411905Y-58698571D01*
X57384286Y-58735714D01*
X57329048Y-58772857D01*
X57163333Y-58772857D01*
X57108095Y-58735714D01*
X57080476Y-58698571D01*
X57936667Y-58252857D02*
X57936667Y-58772857D01*
X57798571Y-57955714D02*
X57660476Y-58512857D01*
X58019524Y-58512857D01*
X57080476Y-60532857D02*
X57439524Y-60532857D01*
X57246190Y-60830000D01*
X57329048Y-60830000D01*
X57384286Y-60867143D01*
X57411905Y-60904286D01*
X57439524Y-60978571D01*
X57439524Y-61164286D01*
X57411905Y-61238571D01*
X57384286Y-61275714D01*
X57329048Y-61312857D01*
X57163333Y-61312857D01*
X57108095Y-61275714D01*
X57080476Y-61238571D01*
X57798571Y-60532857D02*
X57853810Y-60532857D01*
X57909048Y-60570000D01*
X57936667Y-60607143D01*
X57964286Y-60681429D01*
X57991905Y-60830000D01*
X57991905Y-61015714D01*
X57964286Y-61164286D01*
X57936667Y-61238571D01*
X57909048Y-61275714D01*
X57853810Y-61312857D01*
X57798571Y-61312857D01*
X57743333Y-61275714D01*
X57715714Y-61238571D01*
X57688095Y-61164286D01*
X57660476Y-61015714D01*
X57660476Y-60830000D01*
X57688095Y-60681429D01*
X57715714Y-60607143D01*
X57743333Y-60570000D01*
X57798571Y-60532857D01*
X57108095Y-63147143D02*
X57135714Y-63110000D01*
X57190952Y-63072857D01*
X57329048Y-63072857D01*
X57384286Y-63110000D01*
X57411905Y-63147143D01*
X57439524Y-63221429D01*
X57439524Y-63295714D01*
X57411905Y-63407143D01*
X57080476Y-63852857D01*
X57439524Y-63852857D01*
X57936667Y-63072857D02*
X57826190Y-63072857D01*
X57770952Y-63110000D01*
X57743333Y-63147143D01*
X57688095Y-63258571D01*
X57660476Y-63407143D01*
X57660476Y-63704286D01*
X57688095Y-63778571D01*
X57715714Y-63815714D01*
X57770952Y-63852857D01*
X57881429Y-63852857D01*
X57936667Y-63815714D01*
X57964286Y-63778571D01*
X57991905Y-63704286D01*
X57991905Y-63518571D01*
X57964286Y-63444286D01*
X57936667Y-63407143D01*
X57881429Y-63370000D01*
X57770952Y-63370000D01*
X57715714Y-63407143D01*
X57688095Y-63444286D01*
X57660476Y-63518571D01*
X57108095Y-65687143D02*
X57135714Y-65650000D01*
X57190952Y-65612857D01*
X57329048Y-65612857D01*
X57384286Y-65650000D01*
X57411905Y-65687143D01*
X57439524Y-65761429D01*
X57439524Y-65835714D01*
X57411905Y-65947143D01*
X57080476Y-66392857D01*
X57439524Y-66392857D01*
X57660476Y-65687143D02*
X57688095Y-65650000D01*
X57743333Y-65612857D01*
X57881429Y-65612857D01*
X57936667Y-65650000D01*
X57964286Y-65687143D01*
X57991905Y-65761429D01*
X57991905Y-65835714D01*
X57964286Y-65947143D01*
X57632857Y-66392857D01*
X57991905Y-66392857D01*
X57439524Y-68932857D02*
X57108095Y-68932857D01*
X57273809Y-68932857D02*
X57273809Y-68152857D01*
X57218571Y-68264286D01*
X57163333Y-68338571D01*
X57108095Y-68375714D01*
X57770952Y-68487143D02*
X57715714Y-68450000D01*
X57688095Y-68412857D01*
X57660476Y-68338571D01*
X57660476Y-68301429D01*
X57688095Y-68227143D01*
X57715714Y-68190000D01*
X57770952Y-68152857D01*
X57881429Y-68152857D01*
X57936667Y-68190000D01*
X57964286Y-68227143D01*
X57991905Y-68301429D01*
X57991905Y-68338571D01*
X57964286Y-68412857D01*
X57936667Y-68450000D01*
X57881429Y-68487143D01*
X57770952Y-68487143D01*
X57715714Y-68524286D01*
X57688095Y-68561429D01*
X57660476Y-68635714D01*
X57660476Y-68784286D01*
X57688095Y-68858571D01*
X57715714Y-68895714D01*
X57770952Y-68932857D01*
X57881429Y-68932857D01*
X57936667Y-68895714D01*
X57964286Y-68858571D01*
X57991905Y-68784286D01*
X57991905Y-68635714D01*
X57964286Y-68561429D01*
X57936667Y-68524286D01*
X57881429Y-68487143D01*
X57439524Y-71472857D02*
X57108095Y-71472857D01*
X57273809Y-71472857D02*
X57273809Y-70692857D01*
X57218571Y-70804286D01*
X57163333Y-70878571D01*
X57108095Y-70915714D01*
X57936667Y-70952857D02*
X57936667Y-71472857D01*
X57798571Y-70655714D02*
X57660476Y-71212857D01*
X58019524Y-71212857D01*
X57439524Y-74012857D02*
X57108095Y-74012857D01*
X57273809Y-74012857D02*
X57273809Y-73232857D01*
X57218571Y-73344286D01*
X57163333Y-73418571D01*
X57108095Y-73455714D01*
X57798571Y-73232857D02*
X57853810Y-73232857D01*
X57909048Y-73270000D01*
X57936667Y-73307143D01*
X57964286Y-73381429D01*
X57991905Y-73530000D01*
X57991905Y-73715714D01*
X57964286Y-73864286D01*
X57936667Y-73938571D01*
X57909048Y-73975714D01*
X57853810Y-74012857D01*
X57798571Y-74012857D01*
X57743333Y-73975714D01*
X57715714Y-73938571D01*
X57688095Y-73864286D01*
X57660476Y-73715714D01*
X57660476Y-73530000D01*
X57688095Y-73381429D01*
X57715714Y-73307143D01*
X57743333Y-73270000D01*
X57798571Y-73232857D01*
X57660477Y-75772857D02*
X57550000Y-75772857D01*
X57494762Y-75810000D01*
X57467143Y-75847143D01*
X57411905Y-75958571D01*
X57384286Y-76107143D01*
X57384286Y-76404286D01*
X57411905Y-76478571D01*
X57439524Y-76515714D01*
X57494762Y-76552857D01*
X57605239Y-76552857D01*
X57660477Y-76515714D01*
X57688096Y-76478571D01*
X57715715Y-76404286D01*
X57715715Y-76218571D01*
X57688096Y-76144286D01*
X57660477Y-76107143D01*
X57605239Y-76070000D01*
X57494762Y-76070000D01*
X57439524Y-76107143D01*
X57411905Y-76144286D01*
X57384286Y-76218571D01*
X57384286Y-78387143D02*
X57411905Y-78350000D01*
X57467143Y-78312857D01*
X57605239Y-78312857D01*
X57660477Y-78350000D01*
X57688096Y-78387143D01*
X57715715Y-78461429D01*
X57715715Y-78535714D01*
X57688096Y-78647143D01*
X57356667Y-79092857D01*
X57715715Y-79092857D01*
X63761905Y-42752857D02*
X63485714Y-42752857D01*
X63458095Y-43124286D01*
X63485714Y-43087143D01*
X63540952Y-43050000D01*
X63679048Y-43050000D01*
X63734286Y-43087143D01*
X63761905Y-43124286D01*
X63789524Y-43198571D01*
X63789524Y-43384286D01*
X63761905Y-43458571D01*
X63734286Y-43495714D01*
X63679048Y-43532857D01*
X63540952Y-43532857D01*
X63485714Y-43495714D01*
X63458095Y-43458571D01*
X63982857Y-42752857D02*
X64369524Y-42752857D01*
X64120952Y-43532857D01*
X63761905Y-45292857D02*
X63485714Y-45292857D01*
X63458095Y-45664286D01*
X63485714Y-45627143D01*
X63540952Y-45590000D01*
X63679048Y-45590000D01*
X63734286Y-45627143D01*
X63761905Y-45664286D01*
X63789524Y-45738571D01*
X63789524Y-45924286D01*
X63761905Y-45998571D01*
X63734286Y-46035714D01*
X63679048Y-46072857D01*
X63540952Y-46072857D01*
X63485714Y-46035714D01*
X63458095Y-45998571D01*
X63982857Y-45292857D02*
X64341905Y-45292857D01*
X64148571Y-45590000D01*
X64231429Y-45590000D01*
X64286667Y-45627143D01*
X64314286Y-45664286D01*
X64341905Y-45738571D01*
X64341905Y-45924286D01*
X64314286Y-45998571D01*
X64286667Y-46035714D01*
X64231429Y-46072857D01*
X64065714Y-46072857D01*
X64010476Y-46035714D01*
X63982857Y-45998571D01*
X63734286Y-48092857D02*
X63734286Y-48612857D01*
X63596190Y-47795714D02*
X63458095Y-48352857D01*
X63817143Y-48352857D01*
X64065714Y-48612857D02*
X64176190Y-48612857D01*
X64231429Y-48575714D01*
X64259048Y-48538571D01*
X64314286Y-48427143D01*
X64341905Y-48278571D01*
X64341905Y-47981429D01*
X64314286Y-47907143D01*
X64286667Y-47870000D01*
X64231429Y-47832857D01*
X64120952Y-47832857D01*
X64065714Y-47870000D01*
X64038095Y-47907143D01*
X64010476Y-47981429D01*
X64010476Y-48167143D01*
X64038095Y-48241429D01*
X64065714Y-48278571D01*
X64120952Y-48315714D01*
X64231429Y-48315714D01*
X64286667Y-48278571D01*
X64314286Y-48241429D01*
X64341905Y-48167143D01*
X63734286Y-50632857D02*
X63734286Y-51152857D01*
X63596190Y-50335714D02*
X63458095Y-50892857D01*
X63817143Y-50892857D01*
X64314286Y-50372857D02*
X64038095Y-50372857D01*
X64010476Y-50744286D01*
X64038095Y-50707143D01*
X64093333Y-50670000D01*
X64231429Y-50670000D01*
X64286667Y-50707143D01*
X64314286Y-50744286D01*
X64341905Y-50818571D01*
X64341905Y-51004286D01*
X64314286Y-51078571D01*
X64286667Y-51115714D01*
X64231429Y-51152857D01*
X64093333Y-51152857D01*
X64038095Y-51115714D01*
X64010476Y-51078571D01*
X63734286Y-53172857D02*
X63734286Y-53692857D01*
X63596190Y-52875714D02*
X63458095Y-53432857D01*
X63817143Y-53432857D01*
X64341905Y-53692857D02*
X64010476Y-53692857D01*
X64176190Y-53692857D02*
X64176190Y-52912857D01*
X64120952Y-53024286D01*
X64065714Y-53098571D01*
X64010476Y-53135714D01*
X63430476Y-55452857D02*
X63789524Y-55452857D01*
X63596190Y-55750000D01*
X63679048Y-55750000D01*
X63734286Y-55787143D01*
X63761905Y-55824286D01*
X63789524Y-55898571D01*
X63789524Y-56084286D01*
X63761905Y-56158571D01*
X63734286Y-56195714D01*
X63679048Y-56232857D01*
X63513333Y-56232857D01*
X63458095Y-56195714D01*
X63430476Y-56158571D01*
X63982857Y-55452857D02*
X64369524Y-55452857D01*
X64120952Y-56232857D01*
X63430476Y-57992857D02*
X63789524Y-57992857D01*
X63596190Y-58290000D01*
X63679048Y-58290000D01*
X63734286Y-58327143D01*
X63761905Y-58364286D01*
X63789524Y-58438571D01*
X63789524Y-58624286D01*
X63761905Y-58698571D01*
X63734286Y-58735714D01*
X63679048Y-58772857D01*
X63513333Y-58772857D01*
X63458095Y-58735714D01*
X63430476Y-58698571D01*
X63982857Y-57992857D02*
X64341905Y-57992857D01*
X64148571Y-58290000D01*
X64231429Y-58290000D01*
X64286667Y-58327143D01*
X64314286Y-58364286D01*
X64341905Y-58438571D01*
X64341905Y-58624286D01*
X64314286Y-58698571D01*
X64286667Y-58735714D01*
X64231429Y-58772857D01*
X64065714Y-58772857D01*
X64010476Y-58735714D01*
X63982857Y-58698571D01*
X63458095Y-60607143D02*
X63485714Y-60570000D01*
X63540952Y-60532857D01*
X63679048Y-60532857D01*
X63734286Y-60570000D01*
X63761905Y-60607143D01*
X63789524Y-60681429D01*
X63789524Y-60755714D01*
X63761905Y-60867143D01*
X63430476Y-61312857D01*
X63789524Y-61312857D01*
X64065714Y-61312857D02*
X64176190Y-61312857D01*
X64231429Y-61275714D01*
X64259048Y-61238571D01*
X64314286Y-61127143D01*
X64341905Y-60978571D01*
X64341905Y-60681429D01*
X64314286Y-60607143D01*
X64286667Y-60570000D01*
X64231429Y-60532857D01*
X64120952Y-60532857D01*
X64065714Y-60570000D01*
X64038095Y-60607143D01*
X64010476Y-60681429D01*
X64010476Y-60867143D01*
X64038095Y-60941429D01*
X64065714Y-60978571D01*
X64120952Y-61015714D01*
X64231429Y-61015714D01*
X64286667Y-60978571D01*
X64314286Y-60941429D01*
X64341905Y-60867143D01*
X63458095Y-63147143D02*
X63485714Y-63110000D01*
X63540952Y-63072857D01*
X63679048Y-63072857D01*
X63734286Y-63110000D01*
X63761905Y-63147143D01*
X63789524Y-63221429D01*
X63789524Y-63295714D01*
X63761905Y-63407143D01*
X63430476Y-63852857D01*
X63789524Y-63852857D01*
X64314286Y-63072857D02*
X64038095Y-63072857D01*
X64010476Y-63444286D01*
X64038095Y-63407143D01*
X64093333Y-63370000D01*
X64231429Y-63370000D01*
X64286667Y-63407143D01*
X64314286Y-63444286D01*
X64341905Y-63518571D01*
X64341905Y-63704286D01*
X64314286Y-63778571D01*
X64286667Y-63815714D01*
X64231429Y-63852857D01*
X64093333Y-63852857D01*
X64038095Y-63815714D01*
X64010476Y-63778571D01*
X63458095Y-65687143D02*
X63485714Y-65650000D01*
X63540952Y-65612857D01*
X63679048Y-65612857D01*
X63734286Y-65650000D01*
X63761905Y-65687143D01*
X63789524Y-65761429D01*
X63789524Y-65835714D01*
X63761905Y-65947143D01*
X63430476Y-66392857D01*
X63789524Y-66392857D01*
X64341905Y-66392857D02*
X64010476Y-66392857D01*
X64176190Y-66392857D02*
X64176190Y-65612857D01*
X64120952Y-65724286D01*
X64065714Y-65798571D01*
X64010476Y-65835714D01*
X63789524Y-68932857D02*
X63458095Y-68932857D01*
X63623809Y-68932857D02*
X63623809Y-68152857D01*
X63568571Y-68264286D01*
X63513333Y-68338571D01*
X63458095Y-68375714D01*
X63982857Y-68152857D02*
X64369524Y-68152857D01*
X64120952Y-68932857D01*
X63789524Y-71472857D02*
X63458095Y-71472857D01*
X63623809Y-71472857D02*
X63623809Y-70692857D01*
X63568571Y-70804286D01*
X63513333Y-70878571D01*
X63458095Y-70915714D01*
X63982857Y-70692857D02*
X64341905Y-70692857D01*
X64148571Y-70990000D01*
X64231429Y-70990000D01*
X64286667Y-71027143D01*
X64314286Y-71064286D01*
X64341905Y-71138571D01*
X64341905Y-71324286D01*
X64314286Y-71398571D01*
X64286667Y-71435714D01*
X64231429Y-71472857D01*
X64065714Y-71472857D01*
X64010476Y-71435714D01*
X63982857Y-71398571D01*
X63789524Y-74012857D02*
X63900000Y-74012857D01*
X63955239Y-73975714D01*
X63982858Y-73938571D01*
X64038096Y-73827143D01*
X64065715Y-73678571D01*
X64065715Y-73381429D01*
X64038096Y-73307143D01*
X64010477Y-73270000D01*
X63955239Y-73232857D01*
X63844762Y-73232857D01*
X63789524Y-73270000D01*
X63761905Y-73307143D01*
X63734286Y-73381429D01*
X63734286Y-73567143D01*
X63761905Y-73641429D01*
X63789524Y-73678571D01*
X63844762Y-73715714D01*
X63955239Y-73715714D01*
X64010477Y-73678571D01*
X64038096Y-73641429D01*
X64065715Y-73567143D01*
X64038096Y-75772857D02*
X63761905Y-75772857D01*
X63734286Y-76144286D01*
X63761905Y-76107143D01*
X63817143Y-76070000D01*
X63955239Y-76070000D01*
X64010477Y-76107143D01*
X64038096Y-76144286D01*
X64065715Y-76218571D01*
X64065715Y-76404286D01*
X64038096Y-76478571D01*
X64010477Y-76515714D01*
X63955239Y-76552857D01*
X63817143Y-76552857D01*
X63761905Y-76515714D01*
X63734286Y-76478571D01*
X64065715Y-79092857D02*
X63734286Y-79092857D01*
X63900000Y-79092857D02*
X63900000Y-78312857D01*
X63844762Y-78424286D01*
X63789524Y-78498571D01*
X63734286Y-78535714D01*
X76434286Y-42752857D02*
X76323809Y-42752857D01*
X76268571Y-42790000D01*
X76240952Y-42827143D01*
X76185714Y-42938571D01*
X76158095Y-43087143D01*
X76158095Y-43384286D01*
X76185714Y-43458571D01*
X76213333Y-43495714D01*
X76268571Y-43532857D01*
X76379048Y-43532857D01*
X76434286Y-43495714D01*
X76461905Y-43458571D01*
X76489524Y-43384286D01*
X76489524Y-43198571D01*
X76461905Y-43124286D01*
X76434286Y-43087143D01*
X76379048Y-43050000D01*
X76268571Y-43050000D01*
X76213333Y-43087143D01*
X76185714Y-43124286D01*
X76158095Y-43198571D01*
X76682857Y-42752857D02*
X77041905Y-42752857D01*
X76848571Y-43050000D01*
X76931429Y-43050000D01*
X76986667Y-43087143D01*
X77014286Y-43124286D01*
X77041905Y-43198571D01*
X77041905Y-43384286D01*
X77014286Y-43458571D01*
X76986667Y-43495714D01*
X76931429Y-43532857D01*
X76765714Y-43532857D01*
X76710476Y-43495714D01*
X76682857Y-43458571D01*
X76434286Y-45292857D02*
X76323809Y-45292857D01*
X76268571Y-45330000D01*
X76240952Y-45367143D01*
X76185714Y-45478571D01*
X76158095Y-45627143D01*
X76158095Y-45924286D01*
X76185714Y-45998571D01*
X76213333Y-46035714D01*
X76268571Y-46072857D01*
X76379048Y-46072857D01*
X76434286Y-46035714D01*
X76461905Y-45998571D01*
X76489524Y-45924286D01*
X76489524Y-45738571D01*
X76461905Y-45664286D01*
X76434286Y-45627143D01*
X76379048Y-45590000D01*
X76268571Y-45590000D01*
X76213333Y-45627143D01*
X76185714Y-45664286D01*
X76158095Y-45738571D01*
X76682857Y-45292857D02*
X77069524Y-45292857D01*
X76820952Y-46072857D01*
X76130476Y-47832857D02*
X76517143Y-47832857D01*
X76268571Y-48612857D01*
X77041905Y-48612857D02*
X76710476Y-48612857D01*
X76876190Y-48612857D02*
X76876190Y-47832857D01*
X76820952Y-47944286D01*
X76765714Y-48018571D01*
X76710476Y-48055714D01*
X76130476Y-50372857D02*
X76517143Y-50372857D01*
X76268571Y-51152857D01*
X77014286Y-50372857D02*
X76738095Y-50372857D01*
X76710476Y-50744286D01*
X76738095Y-50707143D01*
X76793333Y-50670000D01*
X76931429Y-50670000D01*
X76986667Y-50707143D01*
X77014286Y-50744286D01*
X77041905Y-50818571D01*
X77041905Y-51004286D01*
X77014286Y-51078571D01*
X76986667Y-51115714D01*
X76931429Y-51152857D01*
X76793333Y-51152857D01*
X76738095Y-51115714D01*
X76710476Y-51078571D01*
X76130476Y-52912857D02*
X76517143Y-52912857D01*
X76268571Y-53692857D01*
X76765714Y-53692857D02*
X76876190Y-53692857D01*
X76931429Y-53655714D01*
X76959048Y-53618571D01*
X77014286Y-53507143D01*
X77041905Y-53358571D01*
X77041905Y-53061429D01*
X77014286Y-52987143D01*
X76986667Y-52950000D01*
X76931429Y-52912857D01*
X76820952Y-52912857D01*
X76765714Y-52950000D01*
X76738095Y-52987143D01*
X76710476Y-53061429D01*
X76710476Y-53247143D01*
X76738095Y-53321429D01*
X76765714Y-53358571D01*
X76820952Y-53395714D01*
X76931429Y-53395714D01*
X76986667Y-53358571D01*
X77014286Y-53321429D01*
X77041905Y-53247143D01*
X76268571Y-55787143D02*
X76213333Y-55750000D01*
X76185714Y-55712857D01*
X76158095Y-55638571D01*
X76158095Y-55601429D01*
X76185714Y-55527143D01*
X76213333Y-55490000D01*
X76268571Y-55452857D01*
X76379048Y-55452857D01*
X76434286Y-55490000D01*
X76461905Y-55527143D01*
X76489524Y-55601429D01*
X76489524Y-55638571D01*
X76461905Y-55712857D01*
X76434286Y-55750000D01*
X76379048Y-55787143D01*
X76268571Y-55787143D01*
X76213333Y-55824286D01*
X76185714Y-55861429D01*
X76158095Y-55935714D01*
X76158095Y-56084286D01*
X76185714Y-56158571D01*
X76213333Y-56195714D01*
X76268571Y-56232857D01*
X76379048Y-56232857D01*
X76434286Y-56195714D01*
X76461905Y-56158571D01*
X76489524Y-56084286D01*
X76489524Y-55935714D01*
X76461905Y-55861429D01*
X76434286Y-55824286D01*
X76379048Y-55787143D01*
X76682857Y-55452857D02*
X77041905Y-55452857D01*
X76848571Y-55750000D01*
X76931429Y-55750000D01*
X76986667Y-55787143D01*
X77014286Y-55824286D01*
X77041905Y-55898571D01*
X77041905Y-56084286D01*
X77014286Y-56158571D01*
X76986667Y-56195714D01*
X76931429Y-56232857D01*
X76765714Y-56232857D01*
X76710476Y-56195714D01*
X76682857Y-56158571D01*
X76268571Y-58327143D02*
X76213333Y-58290000D01*
X76185714Y-58252857D01*
X76158095Y-58178571D01*
X76158095Y-58141429D01*
X76185714Y-58067143D01*
X76213333Y-58030000D01*
X76268571Y-57992857D01*
X76379048Y-57992857D01*
X76434286Y-58030000D01*
X76461905Y-58067143D01*
X76489524Y-58141429D01*
X76489524Y-58178571D01*
X76461905Y-58252857D01*
X76434286Y-58290000D01*
X76379048Y-58327143D01*
X76268571Y-58327143D01*
X76213333Y-58364286D01*
X76185714Y-58401429D01*
X76158095Y-58475714D01*
X76158095Y-58624286D01*
X76185714Y-58698571D01*
X76213333Y-58735714D01*
X76268571Y-58772857D01*
X76379048Y-58772857D01*
X76434286Y-58735714D01*
X76461905Y-58698571D01*
X76489524Y-58624286D01*
X76489524Y-58475714D01*
X76461905Y-58401429D01*
X76434286Y-58364286D01*
X76379048Y-58327143D01*
X76682857Y-57992857D02*
X77069524Y-57992857D01*
X76820952Y-58772857D01*
X76213333Y-61312857D02*
X76323809Y-61312857D01*
X76379048Y-61275714D01*
X76406667Y-61238571D01*
X76461905Y-61127143D01*
X76489524Y-60978571D01*
X76489524Y-60681429D01*
X76461905Y-60607143D01*
X76434286Y-60570000D01*
X76379048Y-60532857D01*
X76268571Y-60532857D01*
X76213333Y-60570000D01*
X76185714Y-60607143D01*
X76158095Y-60681429D01*
X76158095Y-60867143D01*
X76185714Y-60941429D01*
X76213333Y-60978571D01*
X76268571Y-61015714D01*
X76379048Y-61015714D01*
X76434286Y-60978571D01*
X76461905Y-60941429D01*
X76489524Y-60867143D01*
X77041905Y-61312857D02*
X76710476Y-61312857D01*
X76876190Y-61312857D02*
X76876190Y-60532857D01*
X76820952Y-60644286D01*
X76765714Y-60718571D01*
X76710476Y-60755714D01*
X76213333Y-63852857D02*
X76323809Y-63852857D01*
X76379048Y-63815714D01*
X76406667Y-63778571D01*
X76461905Y-63667143D01*
X76489524Y-63518571D01*
X76489524Y-63221429D01*
X76461905Y-63147143D01*
X76434286Y-63110000D01*
X76379048Y-63072857D01*
X76268571Y-63072857D01*
X76213333Y-63110000D01*
X76185714Y-63147143D01*
X76158095Y-63221429D01*
X76158095Y-63407143D01*
X76185714Y-63481429D01*
X76213333Y-63518571D01*
X76268571Y-63555714D01*
X76379048Y-63555714D01*
X76434286Y-63518571D01*
X76461905Y-63481429D01*
X76489524Y-63407143D01*
X77014286Y-63072857D02*
X76738095Y-63072857D01*
X76710476Y-63444286D01*
X76738095Y-63407143D01*
X76793333Y-63370000D01*
X76931429Y-63370000D01*
X76986667Y-63407143D01*
X77014286Y-63444286D01*
X77041905Y-63518571D01*
X77041905Y-63704286D01*
X77014286Y-63778571D01*
X76986667Y-63815714D01*
X76931429Y-63852857D01*
X76793333Y-63852857D01*
X76738095Y-63815714D01*
X76710476Y-63778571D01*
X76213333Y-66392857D02*
X76323809Y-66392857D01*
X76379048Y-66355714D01*
X76406667Y-66318571D01*
X76461905Y-66207143D01*
X76489524Y-66058571D01*
X76489524Y-65761429D01*
X76461905Y-65687143D01*
X76434286Y-65650000D01*
X76379048Y-65612857D01*
X76268571Y-65612857D01*
X76213333Y-65650000D01*
X76185714Y-65687143D01*
X76158095Y-65761429D01*
X76158095Y-65947143D01*
X76185714Y-66021429D01*
X76213333Y-66058571D01*
X76268571Y-66095714D01*
X76379048Y-66095714D01*
X76434286Y-66058571D01*
X76461905Y-66021429D01*
X76489524Y-65947143D01*
X76765714Y-66392857D02*
X76876190Y-66392857D01*
X76931429Y-66355714D01*
X76959048Y-66318571D01*
X77014286Y-66207143D01*
X77041905Y-66058571D01*
X77041905Y-65761429D01*
X77014286Y-65687143D01*
X76986667Y-65650000D01*
X76931429Y-65612857D01*
X76820952Y-65612857D01*
X76765714Y-65650000D01*
X76738095Y-65687143D01*
X76710476Y-65761429D01*
X76710476Y-65947143D01*
X76738095Y-66021429D01*
X76765714Y-66058571D01*
X76820952Y-66095714D01*
X76931429Y-66095714D01*
X76986667Y-66058571D01*
X77014286Y-66021429D01*
X77041905Y-65947143D01*
X76213334Y-68932857D02*
X75881905Y-68932857D01*
X76047619Y-68932857D02*
X76047619Y-68152857D01*
X75992381Y-68264286D01*
X75937143Y-68338571D01*
X75881905Y-68375714D01*
X76572381Y-68152857D02*
X76627620Y-68152857D01*
X76682858Y-68190000D01*
X76710477Y-68227143D01*
X76738096Y-68301429D01*
X76765715Y-68450000D01*
X76765715Y-68635714D01*
X76738096Y-68784286D01*
X76710477Y-68858571D01*
X76682858Y-68895714D01*
X76627620Y-68932857D01*
X76572381Y-68932857D01*
X76517143Y-68895714D01*
X76489524Y-68858571D01*
X76461905Y-68784286D01*
X76434286Y-68635714D01*
X76434286Y-68450000D01*
X76461905Y-68301429D01*
X76489524Y-68227143D01*
X76517143Y-68190000D01*
X76572381Y-68152857D01*
X76959048Y-68152857D02*
X77318096Y-68152857D01*
X77124762Y-68450000D01*
X77207620Y-68450000D01*
X77262858Y-68487143D01*
X77290477Y-68524286D01*
X77318096Y-68598571D01*
X77318096Y-68784286D01*
X77290477Y-68858571D01*
X77262858Y-68895714D01*
X77207620Y-68932857D01*
X77041905Y-68932857D01*
X76986667Y-68895714D01*
X76959048Y-68858571D01*
X76213334Y-71472857D02*
X75881905Y-71472857D01*
X76047619Y-71472857D02*
X76047619Y-70692857D01*
X75992381Y-70804286D01*
X75937143Y-70878571D01*
X75881905Y-70915714D01*
X76572381Y-70692857D02*
X76627620Y-70692857D01*
X76682858Y-70730000D01*
X76710477Y-70767143D01*
X76738096Y-70841429D01*
X76765715Y-70990000D01*
X76765715Y-71175714D01*
X76738096Y-71324286D01*
X76710477Y-71398571D01*
X76682858Y-71435714D01*
X76627620Y-71472857D01*
X76572381Y-71472857D01*
X76517143Y-71435714D01*
X76489524Y-71398571D01*
X76461905Y-71324286D01*
X76434286Y-71175714D01*
X76434286Y-70990000D01*
X76461905Y-70841429D01*
X76489524Y-70767143D01*
X76517143Y-70730000D01*
X76572381Y-70692857D01*
X76959048Y-70692857D02*
X77345715Y-70692857D01*
X77097143Y-71472857D01*
X76213334Y-74012857D02*
X75881905Y-74012857D01*
X76047619Y-74012857D02*
X76047619Y-73232857D01*
X75992381Y-73344286D01*
X75937143Y-73418571D01*
X75881905Y-73455714D01*
X76765715Y-74012857D02*
X76434286Y-74012857D01*
X76600000Y-74012857D02*
X76600000Y-73232857D01*
X76544762Y-73344286D01*
X76489524Y-73418571D01*
X76434286Y-73455714D01*
X77318096Y-74012857D02*
X76986667Y-74012857D01*
X77152381Y-74012857D02*
X77152381Y-73232857D01*
X77097143Y-73344286D01*
X77041905Y-73418571D01*
X76986667Y-73455714D01*
X76213334Y-76552857D02*
X75881905Y-76552857D01*
X76047619Y-76552857D02*
X76047619Y-75772857D01*
X75992381Y-75884286D01*
X75937143Y-75958571D01*
X75881905Y-75995714D01*
X76765715Y-76552857D02*
X76434286Y-76552857D01*
X76600000Y-76552857D02*
X76600000Y-75772857D01*
X76544762Y-75884286D01*
X76489524Y-75958571D01*
X76434286Y-75995714D01*
X77290477Y-75772857D02*
X77014286Y-75772857D01*
X76986667Y-76144286D01*
X77014286Y-76107143D01*
X77069524Y-76070000D01*
X77207620Y-76070000D01*
X77262858Y-76107143D01*
X77290477Y-76144286D01*
X77318096Y-76218571D01*
X77318096Y-76404286D01*
X77290477Y-76478571D01*
X77262858Y-76515714D01*
X77207620Y-76552857D01*
X77069524Y-76552857D01*
X77014286Y-76515714D01*
X76986667Y-76478571D01*
X76213334Y-79092857D02*
X75881905Y-79092857D01*
X76047619Y-79092857D02*
X76047619Y-78312857D01*
X75992381Y-78424286D01*
X75937143Y-78498571D01*
X75881905Y-78535714D01*
X76765715Y-79092857D02*
X76434286Y-79092857D01*
X76600000Y-79092857D02*
X76600000Y-78312857D01*
X76544762Y-78424286D01*
X76489524Y-78498571D01*
X76434286Y-78535714D01*
X77041905Y-79092857D02*
X77152381Y-79092857D01*
X77207620Y-79055714D01*
X77235239Y-79018571D01*
X77290477Y-78907143D01*
X77318096Y-78758571D01*
X77318096Y-78461429D01*
X77290477Y-78387143D01*
X77262858Y-78350000D01*
X77207620Y-78312857D01*
X77097143Y-78312857D01*
X77041905Y-78350000D01*
X77014286Y-78387143D01*
X76986667Y-78461429D01*
X76986667Y-78647143D01*
X77014286Y-78721429D01*
X77041905Y-78758571D01*
X77097143Y-78795714D01*
X77207620Y-78795714D01*
X77262858Y-78758571D01*
X77290477Y-78721429D01*
X77318096Y-78647143D01*
X70111905Y-42752857D02*
X69835714Y-42752857D01*
X69808095Y-43124286D01*
X69835714Y-43087143D01*
X69890952Y-43050000D01*
X70029048Y-43050000D01*
X70084286Y-43087143D01*
X70111905Y-43124286D01*
X70139524Y-43198571D01*
X70139524Y-43384286D01*
X70111905Y-43458571D01*
X70084286Y-43495714D01*
X70029048Y-43532857D01*
X69890952Y-43532857D01*
X69835714Y-43495714D01*
X69808095Y-43458571D01*
X70636667Y-42752857D02*
X70526190Y-42752857D01*
X70470952Y-42790000D01*
X70443333Y-42827143D01*
X70388095Y-42938571D01*
X70360476Y-43087143D01*
X70360476Y-43384286D01*
X70388095Y-43458571D01*
X70415714Y-43495714D01*
X70470952Y-43532857D01*
X70581429Y-43532857D01*
X70636667Y-43495714D01*
X70664286Y-43458571D01*
X70691905Y-43384286D01*
X70691905Y-43198571D01*
X70664286Y-43124286D01*
X70636667Y-43087143D01*
X70581429Y-43050000D01*
X70470952Y-43050000D01*
X70415714Y-43087143D01*
X70388095Y-43124286D01*
X70360476Y-43198571D01*
X70111905Y-45292857D02*
X69835714Y-45292857D01*
X69808095Y-45664286D01*
X69835714Y-45627143D01*
X69890952Y-45590000D01*
X70029048Y-45590000D01*
X70084286Y-45627143D01*
X70111905Y-45664286D01*
X70139524Y-45738571D01*
X70139524Y-45924286D01*
X70111905Y-45998571D01*
X70084286Y-46035714D01*
X70029048Y-46072857D01*
X69890952Y-46072857D01*
X69835714Y-46035714D01*
X69808095Y-45998571D01*
X70360476Y-45367143D02*
X70388095Y-45330000D01*
X70443333Y-45292857D01*
X70581429Y-45292857D01*
X70636667Y-45330000D01*
X70664286Y-45367143D01*
X70691905Y-45441429D01*
X70691905Y-45515714D01*
X70664286Y-45627143D01*
X70332857Y-46072857D01*
X70691905Y-46072857D01*
X70084286Y-48092857D02*
X70084286Y-48612857D01*
X69946190Y-47795714D02*
X69808095Y-48352857D01*
X70167143Y-48352857D01*
X70470952Y-48167143D02*
X70415714Y-48130000D01*
X70388095Y-48092857D01*
X70360476Y-48018571D01*
X70360476Y-47981429D01*
X70388095Y-47907143D01*
X70415714Y-47870000D01*
X70470952Y-47832857D01*
X70581429Y-47832857D01*
X70636667Y-47870000D01*
X70664286Y-47907143D01*
X70691905Y-47981429D01*
X70691905Y-48018571D01*
X70664286Y-48092857D01*
X70636667Y-48130000D01*
X70581429Y-48167143D01*
X70470952Y-48167143D01*
X70415714Y-48204286D01*
X70388095Y-48241429D01*
X70360476Y-48315714D01*
X70360476Y-48464286D01*
X70388095Y-48538571D01*
X70415714Y-48575714D01*
X70470952Y-48612857D01*
X70581429Y-48612857D01*
X70636667Y-48575714D01*
X70664286Y-48538571D01*
X70691905Y-48464286D01*
X70691905Y-48315714D01*
X70664286Y-48241429D01*
X70636667Y-48204286D01*
X70581429Y-48167143D01*
X70084286Y-50632857D02*
X70084286Y-51152857D01*
X69946190Y-50335714D02*
X69808095Y-50892857D01*
X70167143Y-50892857D01*
X70636667Y-50632857D02*
X70636667Y-51152857D01*
X70498571Y-50335714D02*
X70360476Y-50892857D01*
X70719524Y-50892857D01*
X70084286Y-53172857D02*
X70084286Y-53692857D01*
X69946190Y-52875714D02*
X69808095Y-53432857D01*
X70167143Y-53432857D01*
X70498571Y-52912857D02*
X70553810Y-52912857D01*
X70609048Y-52950000D01*
X70636667Y-52987143D01*
X70664286Y-53061429D01*
X70691905Y-53210000D01*
X70691905Y-53395714D01*
X70664286Y-53544286D01*
X70636667Y-53618571D01*
X70609048Y-53655714D01*
X70553810Y-53692857D01*
X70498571Y-53692857D01*
X70443333Y-53655714D01*
X70415714Y-53618571D01*
X70388095Y-53544286D01*
X70360476Y-53395714D01*
X70360476Y-53210000D01*
X70388095Y-53061429D01*
X70415714Y-52987143D01*
X70443333Y-52950000D01*
X70498571Y-52912857D01*
X69780476Y-55452857D02*
X70139524Y-55452857D01*
X69946190Y-55750000D01*
X70029048Y-55750000D01*
X70084286Y-55787143D01*
X70111905Y-55824286D01*
X70139524Y-55898571D01*
X70139524Y-56084286D01*
X70111905Y-56158571D01*
X70084286Y-56195714D01*
X70029048Y-56232857D01*
X69863333Y-56232857D01*
X69808095Y-56195714D01*
X69780476Y-56158571D01*
X70636667Y-55452857D02*
X70526190Y-55452857D01*
X70470952Y-55490000D01*
X70443333Y-55527143D01*
X70388095Y-55638571D01*
X70360476Y-55787143D01*
X70360476Y-56084286D01*
X70388095Y-56158571D01*
X70415714Y-56195714D01*
X70470952Y-56232857D01*
X70581429Y-56232857D01*
X70636667Y-56195714D01*
X70664286Y-56158571D01*
X70691905Y-56084286D01*
X70691905Y-55898571D01*
X70664286Y-55824286D01*
X70636667Y-55787143D01*
X70581429Y-55750000D01*
X70470952Y-55750000D01*
X70415714Y-55787143D01*
X70388095Y-55824286D01*
X70360476Y-55898571D01*
X69780476Y-57992857D02*
X70139524Y-57992857D01*
X69946190Y-58290000D01*
X70029048Y-58290000D01*
X70084286Y-58327143D01*
X70111905Y-58364286D01*
X70139524Y-58438571D01*
X70139524Y-58624286D01*
X70111905Y-58698571D01*
X70084286Y-58735714D01*
X70029048Y-58772857D01*
X69863333Y-58772857D01*
X69808095Y-58735714D01*
X69780476Y-58698571D01*
X70360476Y-58067143D02*
X70388095Y-58030000D01*
X70443333Y-57992857D01*
X70581429Y-57992857D01*
X70636667Y-58030000D01*
X70664286Y-58067143D01*
X70691905Y-58141429D01*
X70691905Y-58215714D01*
X70664286Y-58327143D01*
X70332857Y-58772857D01*
X70691905Y-58772857D01*
X69808095Y-60607143D02*
X69835714Y-60570000D01*
X69890952Y-60532857D01*
X70029048Y-60532857D01*
X70084286Y-60570000D01*
X70111905Y-60607143D01*
X70139524Y-60681429D01*
X70139524Y-60755714D01*
X70111905Y-60867143D01*
X69780476Y-61312857D01*
X70139524Y-61312857D01*
X70470952Y-60867143D02*
X70415714Y-60830000D01*
X70388095Y-60792857D01*
X70360476Y-60718571D01*
X70360476Y-60681429D01*
X70388095Y-60607143D01*
X70415714Y-60570000D01*
X70470952Y-60532857D01*
X70581429Y-60532857D01*
X70636667Y-60570000D01*
X70664286Y-60607143D01*
X70691905Y-60681429D01*
X70691905Y-60718571D01*
X70664286Y-60792857D01*
X70636667Y-60830000D01*
X70581429Y-60867143D01*
X70470952Y-60867143D01*
X70415714Y-60904286D01*
X70388095Y-60941429D01*
X70360476Y-61015714D01*
X70360476Y-61164286D01*
X70388095Y-61238571D01*
X70415714Y-61275714D01*
X70470952Y-61312857D01*
X70581429Y-61312857D01*
X70636667Y-61275714D01*
X70664286Y-61238571D01*
X70691905Y-61164286D01*
X70691905Y-61015714D01*
X70664286Y-60941429D01*
X70636667Y-60904286D01*
X70581429Y-60867143D01*
X69808095Y-63147143D02*
X69835714Y-63110000D01*
X69890952Y-63072857D01*
X70029048Y-63072857D01*
X70084286Y-63110000D01*
X70111905Y-63147143D01*
X70139524Y-63221429D01*
X70139524Y-63295714D01*
X70111905Y-63407143D01*
X69780476Y-63852857D01*
X70139524Y-63852857D01*
X70636667Y-63332857D02*
X70636667Y-63852857D01*
X70498571Y-63035714D02*
X70360476Y-63592857D01*
X70719524Y-63592857D01*
X69808095Y-65687143D02*
X69835714Y-65650000D01*
X69890952Y-65612857D01*
X70029048Y-65612857D01*
X70084286Y-65650000D01*
X70111905Y-65687143D01*
X70139524Y-65761429D01*
X70139524Y-65835714D01*
X70111905Y-65947143D01*
X69780476Y-66392857D01*
X70139524Y-66392857D01*
X70498571Y-65612857D02*
X70553810Y-65612857D01*
X70609048Y-65650000D01*
X70636667Y-65687143D01*
X70664286Y-65761429D01*
X70691905Y-65910000D01*
X70691905Y-66095714D01*
X70664286Y-66244286D01*
X70636667Y-66318571D01*
X70609048Y-66355714D01*
X70553810Y-66392857D01*
X70498571Y-66392857D01*
X70443333Y-66355714D01*
X70415714Y-66318571D01*
X70388095Y-66244286D01*
X70360476Y-66095714D01*
X70360476Y-65910000D01*
X70388095Y-65761429D01*
X70415714Y-65687143D01*
X70443333Y-65650000D01*
X70498571Y-65612857D01*
X70139524Y-68932857D02*
X69808095Y-68932857D01*
X69973809Y-68932857D02*
X69973809Y-68152857D01*
X69918571Y-68264286D01*
X69863333Y-68338571D01*
X69808095Y-68375714D01*
X70636667Y-68152857D02*
X70526190Y-68152857D01*
X70470952Y-68190000D01*
X70443333Y-68227143D01*
X70388095Y-68338571D01*
X70360476Y-68487143D01*
X70360476Y-68784286D01*
X70388095Y-68858571D01*
X70415714Y-68895714D01*
X70470952Y-68932857D01*
X70581429Y-68932857D01*
X70636667Y-68895714D01*
X70664286Y-68858571D01*
X70691905Y-68784286D01*
X70691905Y-68598571D01*
X70664286Y-68524286D01*
X70636667Y-68487143D01*
X70581429Y-68450000D01*
X70470952Y-68450000D01*
X70415714Y-68487143D01*
X70388095Y-68524286D01*
X70360476Y-68598571D01*
X70139524Y-71472857D02*
X69808095Y-71472857D01*
X69973809Y-71472857D02*
X69973809Y-70692857D01*
X69918571Y-70804286D01*
X69863333Y-70878571D01*
X69808095Y-70915714D01*
X70360476Y-70767143D02*
X70388095Y-70730000D01*
X70443333Y-70692857D01*
X70581429Y-70692857D01*
X70636667Y-70730000D01*
X70664286Y-70767143D01*
X70691905Y-70841429D01*
X70691905Y-70915714D01*
X70664286Y-71027143D01*
X70332857Y-71472857D01*
X70691905Y-71472857D01*
X70194762Y-73567143D02*
X70139524Y-73530000D01*
X70111905Y-73492857D01*
X70084286Y-73418571D01*
X70084286Y-73381429D01*
X70111905Y-73307143D01*
X70139524Y-73270000D01*
X70194762Y-73232857D01*
X70305239Y-73232857D01*
X70360477Y-73270000D01*
X70388096Y-73307143D01*
X70415715Y-73381429D01*
X70415715Y-73418571D01*
X70388096Y-73492857D01*
X70360477Y-73530000D01*
X70305239Y-73567143D01*
X70194762Y-73567143D01*
X70139524Y-73604286D01*
X70111905Y-73641429D01*
X70084286Y-73715714D01*
X70084286Y-73864286D01*
X70111905Y-73938571D01*
X70139524Y-73975714D01*
X70194762Y-74012857D01*
X70305239Y-74012857D01*
X70360477Y-73975714D01*
X70388096Y-73938571D01*
X70415715Y-73864286D01*
X70415715Y-73715714D01*
X70388096Y-73641429D01*
X70360477Y-73604286D01*
X70305239Y-73567143D01*
X70360477Y-76032857D02*
X70360477Y-76552857D01*
X70222381Y-75735714D02*
X70084286Y-76292857D01*
X70443334Y-76292857D01*
X70222381Y-78312857D02*
X70277620Y-78312857D01*
X70332858Y-78350000D01*
X70360477Y-78387143D01*
X70388096Y-78461429D01*
X70415715Y-78610000D01*
X70415715Y-78795714D01*
X70388096Y-78944286D01*
X70360477Y-79018571D01*
X70332858Y-79055714D01*
X70277620Y-79092857D01*
X70222381Y-79092857D01*
X70167143Y-79055714D01*
X70139524Y-79018571D01*
X70111905Y-78944286D01*
X70084286Y-78795714D01*
X70084286Y-78610000D01*
X70111905Y-78461429D01*
X70139524Y-78387143D01*
X70167143Y-78350000D01*
X70222381Y-78312857D01*
D11*
X82571429Y-38202381D02*
X82190476Y-38202381D01*
X82190476Y-37202381D01*
X82838095Y-37678571D02*
X83104762Y-37678571D01*
X83219048Y-38202381D02*
X82838095Y-38202381D01*
X82838095Y-37202381D01*
X83219048Y-37202381D01*
X83561905Y-38202381D02*
X83561905Y-37202381D01*
X83752381Y-37202381D01*
X83866667Y-37250000D01*
X83942858Y-37345238D01*
X83980953Y-37440476D01*
X84019048Y-37630952D01*
X84019048Y-37773810D01*
X83980953Y-37964286D01*
X83942858Y-38059524D01*
X83866667Y-38154762D01*
X83752381Y-38202381D01*
X83561905Y-38202381D01*
X84857143Y-37535714D02*
X85161905Y-37535714D01*
X84971429Y-37202381D02*
X84971429Y-38059524D01*
X85009524Y-38154762D01*
X85085715Y-38202381D01*
X85161905Y-38202381D01*
X85733334Y-38154762D02*
X85657144Y-38202381D01*
X85504763Y-38202381D01*
X85428572Y-38154762D01*
X85390477Y-38059524D01*
X85390477Y-37678571D01*
X85428572Y-37583333D01*
X85504763Y-37535714D01*
X85657144Y-37535714D01*
X85733334Y-37583333D01*
X85771429Y-37678571D01*
X85771429Y-37773810D01*
X85390477Y-37869048D01*
X86076191Y-38154762D02*
X86152381Y-38202381D01*
X86304762Y-38202381D01*
X86380953Y-38154762D01*
X86419048Y-38059524D01*
X86419048Y-38011905D01*
X86380953Y-37916667D01*
X86304762Y-37869048D01*
X86190477Y-37869048D01*
X86114286Y-37821429D01*
X86076191Y-37726190D01*
X86076191Y-37678571D01*
X86114286Y-37583333D01*
X86190477Y-37535714D01*
X86304762Y-37535714D01*
X86380953Y-37583333D01*
X86647619Y-37535714D02*
X86952381Y-37535714D01*
X86761905Y-37202381D02*
X86761905Y-38059524D01*
X86800000Y-38154762D01*
X86876191Y-38202381D01*
X86952381Y-38202381D01*
X87828572Y-38202381D02*
X87828572Y-37202381D01*
X87828572Y-37583333D02*
X87904763Y-37535714D01*
X88057144Y-37535714D01*
X88133334Y-37583333D01*
X88171429Y-37630952D01*
X88209525Y-37726190D01*
X88209525Y-38011905D01*
X88171429Y-38107143D01*
X88133334Y-38154762D01*
X88057144Y-38202381D01*
X87904763Y-38202381D01*
X87828572Y-38154762D01*
X88666668Y-38202381D02*
X88590477Y-38154762D01*
X88552382Y-38107143D01*
X88514287Y-38011905D01*
X88514287Y-37726190D01*
X88552382Y-37630952D01*
X88590477Y-37583333D01*
X88666668Y-37535714D01*
X88780954Y-37535714D01*
X88857144Y-37583333D01*
X88895239Y-37630952D01*
X88933335Y-37726190D01*
X88933335Y-38011905D01*
X88895239Y-38107143D01*
X88857144Y-38154762D01*
X88780954Y-38202381D01*
X88666668Y-38202381D01*
X89619049Y-38202381D02*
X89619049Y-37678571D01*
X89580954Y-37583333D01*
X89504764Y-37535714D01*
X89352383Y-37535714D01*
X89276192Y-37583333D01*
X89619049Y-38154762D02*
X89542859Y-38202381D01*
X89352383Y-38202381D01*
X89276192Y-38154762D01*
X89238097Y-38059524D01*
X89238097Y-37964286D01*
X89276192Y-37869048D01*
X89352383Y-37821429D01*
X89542859Y-37821429D01*
X89619049Y-37773810D01*
X90000002Y-38202381D02*
X90000002Y-37535714D01*
X90000002Y-37726190D02*
X90038097Y-37630952D01*
X90076193Y-37583333D01*
X90152383Y-37535714D01*
X90228574Y-37535714D01*
X90838097Y-38202381D02*
X90838097Y-37202381D01*
X90838097Y-38154762D02*
X90761907Y-38202381D01*
X90609526Y-38202381D01*
X90533335Y-38154762D01*
X90495240Y-38107143D01*
X90457145Y-38011905D01*
X90457145Y-37726190D01*
X90495240Y-37630952D01*
X90533335Y-37583333D01*
X90609526Y-37535714D01*
X90761907Y-37535714D01*
X90838097Y-37583333D01*
X91752384Y-37535714D02*
X91942860Y-38202381D01*
X92133336Y-37535714D01*
X92857146Y-38202381D02*
X92400003Y-38202381D01*
X92628574Y-38202381D02*
X92628574Y-37202381D01*
X92552384Y-37345238D01*
X92476193Y-37440476D01*
X92400003Y-37488095D01*
X93200003Y-38107143D02*
X93238098Y-38154762D01*
X93200003Y-38202381D01*
X93161908Y-38154762D01*
X93200003Y-38107143D01*
X93200003Y-38202381D01*
X93733336Y-37202381D02*
X93809527Y-37202381D01*
X93885717Y-37250000D01*
X93923812Y-37297619D01*
X93961908Y-37392857D01*
X94000003Y-37583333D01*
X94000003Y-37821429D01*
X93961908Y-38011905D01*
X93923812Y-38107143D01*
X93885717Y-38154762D01*
X93809527Y-38202381D01*
X93733336Y-38202381D01*
X93657146Y-38154762D01*
X93619050Y-38107143D01*
X93580955Y-38011905D01*
X93542860Y-37821429D01*
X93542860Y-37583333D01*
X93580955Y-37392857D01*
X93619050Y-37297619D01*
X93657146Y-37250000D01*
X93733336Y-37202381D01*
X82190476Y-39902381D02*
X82190476Y-38902381D01*
X82533333Y-39902381D02*
X82533333Y-39378571D01*
X82495238Y-39283333D01*
X82419048Y-39235714D01*
X82304762Y-39235714D01*
X82228571Y-39283333D01*
X82190476Y-39330952D01*
X82800000Y-39235714D02*
X83104762Y-39235714D01*
X82914286Y-38902381D02*
X82914286Y-39759524D01*
X82952381Y-39854762D01*
X83028572Y-39902381D01*
X83104762Y-39902381D01*
X83257143Y-39235714D02*
X83561905Y-39235714D01*
X83371429Y-38902381D02*
X83371429Y-39759524D01*
X83409524Y-39854762D01*
X83485715Y-39902381D01*
X83561905Y-39902381D01*
X83828572Y-39235714D02*
X83828572Y-40235714D01*
X83828572Y-39283333D02*
X83904763Y-39235714D01*
X84057144Y-39235714D01*
X84133334Y-39283333D01*
X84171429Y-39330952D01*
X84209525Y-39426190D01*
X84209525Y-39711905D01*
X84171429Y-39807143D01*
X84133334Y-39854762D01*
X84057144Y-39902381D01*
X83904763Y-39902381D01*
X83828572Y-39854762D01*
X84552382Y-39807143D02*
X84590477Y-39854762D01*
X84552382Y-39902381D01*
X84514287Y-39854762D01*
X84552382Y-39807143D01*
X84552382Y-39902381D01*
X84552382Y-39283333D02*
X84590477Y-39330952D01*
X84552382Y-39378571D01*
X84514287Y-39330952D01*
X84552382Y-39283333D01*
X84552382Y-39378571D01*
X85504763Y-38854762D02*
X84819048Y-40140476D01*
X86342858Y-38854762D02*
X85657143Y-40140476D01*
X86609524Y-39902381D02*
X86609524Y-39235714D01*
X86609524Y-39330952D02*
X86647619Y-39283333D01*
X86723810Y-39235714D01*
X86838096Y-39235714D01*
X86914286Y-39283333D01*
X86952381Y-39378571D01*
X86952381Y-39902381D01*
X86952381Y-39378571D02*
X86990477Y-39283333D01*
X87066667Y-39235714D01*
X87180953Y-39235714D01*
X87257143Y-39283333D01*
X87295238Y-39378571D01*
X87295238Y-39902381D01*
X87676191Y-39902381D02*
X87676191Y-39235714D01*
X87676191Y-38902381D02*
X87638096Y-38950000D01*
X87676191Y-38997619D01*
X87714286Y-38950000D01*
X87676191Y-38902381D01*
X87676191Y-38997619D01*
X88400000Y-39854762D02*
X88323810Y-39902381D01*
X88171429Y-39902381D01*
X88095238Y-39854762D01*
X88057143Y-39807143D01*
X88019048Y-39711905D01*
X88019048Y-39426190D01*
X88057143Y-39330952D01*
X88095238Y-39283333D01*
X88171429Y-39235714D01*
X88323810Y-39235714D01*
X88400000Y-39283333D01*
X88742857Y-39902381D02*
X88742857Y-39235714D01*
X88742857Y-39426190D02*
X88780952Y-39330952D01*
X88819048Y-39283333D01*
X88895238Y-39235714D01*
X88971429Y-39235714D01*
X89352381Y-39902381D02*
X89276190Y-39854762D01*
X89238095Y-39807143D01*
X89200000Y-39711905D01*
X89200000Y-39426190D01*
X89238095Y-39330952D01*
X89276190Y-39283333D01*
X89352381Y-39235714D01*
X89466667Y-39235714D01*
X89542857Y-39283333D01*
X89580952Y-39330952D01*
X89619048Y-39426190D01*
X89619048Y-39711905D01*
X89580952Y-39807143D01*
X89542857Y-39854762D01*
X89466667Y-39902381D01*
X89352381Y-39902381D01*
X89847619Y-39235714D02*
X90152381Y-39235714D01*
X89961905Y-39902381D02*
X89961905Y-39045238D01*
X90000000Y-38950000D01*
X90076191Y-38902381D01*
X90152381Y-38902381D01*
X90533334Y-39902381D02*
X90457143Y-39854762D01*
X90419048Y-39759524D01*
X90419048Y-38902381D01*
X91180953Y-39235714D02*
X91180953Y-39902381D01*
X90838096Y-39235714D02*
X90838096Y-39759524D01*
X90876191Y-39854762D01*
X90952382Y-39902381D01*
X91066668Y-39902381D01*
X91142858Y-39854762D01*
X91180953Y-39807143D01*
X91561906Y-39902381D02*
X91561906Y-39235714D01*
X91561906Y-38902381D02*
X91523811Y-38950000D01*
X91561906Y-38997619D01*
X91600001Y-38950000D01*
X91561906Y-38902381D01*
X91561906Y-38997619D01*
X92285715Y-39902381D02*
X92285715Y-38902381D01*
X92285715Y-39854762D02*
X92209525Y-39902381D01*
X92057144Y-39902381D01*
X91980953Y-39854762D01*
X91942858Y-39807143D01*
X91904763Y-39711905D01*
X91904763Y-39426190D01*
X91942858Y-39330952D01*
X91980953Y-39283333D01*
X92057144Y-39235714D01*
X92209525Y-39235714D01*
X92285715Y-39283333D01*
X92666668Y-39902381D02*
X92666668Y-39235714D01*
X92666668Y-38902381D02*
X92628573Y-38950000D01*
X92666668Y-38997619D01*
X92704763Y-38950000D01*
X92666668Y-38902381D01*
X92666668Y-38997619D01*
X93390477Y-39854762D02*
X93314287Y-39902381D01*
X93161906Y-39902381D01*
X93085715Y-39854762D01*
X93047620Y-39807143D01*
X93009525Y-39711905D01*
X93009525Y-39426190D01*
X93047620Y-39330952D01*
X93085715Y-39283333D01*
X93161906Y-39235714D01*
X93314287Y-39235714D01*
X93390477Y-39283333D01*
X93695239Y-39854762D02*
X93771429Y-39902381D01*
X93923810Y-39902381D01*
X94000001Y-39854762D01*
X94038096Y-39759524D01*
X94038096Y-39711905D01*
X94000001Y-39616667D01*
X93923810Y-39569048D01*
X93809525Y-39569048D01*
X93733334Y-39521429D01*
X93695239Y-39426190D01*
X93695239Y-39378571D01*
X93733334Y-39283333D01*
X93809525Y-39235714D01*
X93923810Y-39235714D01*
X94000001Y-39283333D01*
X94380953Y-39807143D02*
X94419048Y-39854762D01*
X94380953Y-39902381D01*
X94342858Y-39854762D01*
X94380953Y-39807143D01*
X94380953Y-39902381D01*
X95104762Y-39235714D02*
X95104762Y-39902381D01*
X94761905Y-39235714D02*
X94761905Y-39759524D01*
X94800000Y-39854762D01*
X94876191Y-39902381D01*
X94990477Y-39902381D01*
X95066667Y-39854762D01*
X95104762Y-39807143D01*
X95371429Y-39235714D02*
X95676191Y-39235714D01*
X95485715Y-38902381D02*
X95485715Y-39759524D01*
X95523810Y-39854762D01*
X95600001Y-39902381D01*
X95676191Y-39902381D01*
X96057144Y-39902381D02*
X95980953Y-39854762D01*
X95942858Y-39807143D01*
X95904763Y-39711905D01*
X95904763Y-39426190D01*
X95942858Y-39330952D01*
X95980953Y-39283333D01*
X96057144Y-39235714D01*
X96171430Y-39235714D01*
X96247620Y-39283333D01*
X96285715Y-39330952D01*
X96323811Y-39426190D01*
X96323811Y-39711905D01*
X96285715Y-39807143D01*
X96247620Y-39854762D01*
X96171430Y-39902381D01*
X96057144Y-39902381D01*
X96666668Y-39902381D02*
X96666668Y-39235714D01*
X96666668Y-39426190D02*
X96704763Y-39330952D01*
X96742859Y-39283333D01*
X96819049Y-39235714D01*
X96895240Y-39235714D01*
X97276192Y-39902381D02*
X97200001Y-39854762D01*
X97161906Y-39807143D01*
X97123811Y-39711905D01*
X97123811Y-39426190D01*
X97161906Y-39330952D01*
X97200001Y-39283333D01*
X97276192Y-39235714D01*
X97390478Y-39235714D01*
X97466668Y-39283333D01*
X97504763Y-39330952D01*
X97542859Y-39426190D01*
X97542859Y-39711905D01*
X97504763Y-39807143D01*
X97466668Y-39854762D01*
X97390478Y-39902381D01*
X97276192Y-39902381D01*
X97885716Y-39235714D02*
X97885716Y-39902381D01*
X97885716Y-39330952D02*
X97923811Y-39283333D01*
X98000002Y-39235714D01*
X98114288Y-39235714D01*
X98190478Y-39283333D01*
X98228573Y-39378571D01*
X98228573Y-39902381D01*
X98495240Y-39235714D02*
X98800002Y-39235714D01*
X98609526Y-38902381D02*
X98609526Y-39759524D01*
X98647621Y-39854762D01*
X98723812Y-39902381D01*
X98800002Y-39902381D01*
X99180955Y-39902381D02*
X99104764Y-39854762D01*
X99066669Y-39807143D01*
X99028574Y-39711905D01*
X99028574Y-39426190D01*
X99066669Y-39330952D01*
X99104764Y-39283333D01*
X99180955Y-39235714D01*
X99295241Y-39235714D01*
X99371431Y-39283333D01*
X99409526Y-39330952D01*
X99447622Y-39426190D01*
X99447622Y-39711905D01*
X99409526Y-39807143D01*
X99371431Y-39854762D01*
X99295241Y-39902381D01*
X99180955Y-39902381D01*
X99790479Y-39807143D02*
X99828574Y-39854762D01*
X99790479Y-39902381D01*
X99752384Y-39854762D01*
X99790479Y-39807143D01*
X99790479Y-39902381D01*
X100514288Y-39854762D02*
X100438098Y-39902381D01*
X100285717Y-39902381D01*
X100209526Y-39854762D01*
X100171431Y-39807143D01*
X100133336Y-39711905D01*
X100133336Y-39426190D01*
X100171431Y-39330952D01*
X100209526Y-39283333D01*
X100285717Y-39235714D01*
X100438098Y-39235714D01*
X100514288Y-39283333D01*
X101200002Y-39902381D02*
X101200002Y-39378571D01*
X101161907Y-39283333D01*
X101085717Y-39235714D01*
X100933336Y-39235714D01*
X100857145Y-39283333D01*
X101200002Y-39854762D02*
X101123812Y-39902381D01*
X100933336Y-39902381D01*
X100857145Y-39854762D01*
X100819050Y-39759524D01*
X100819050Y-39664286D01*
X100857145Y-39569048D01*
X100933336Y-39521429D01*
X101123812Y-39521429D01*
X101200002Y-39473810D01*
D13*
X74870000Y-83566000D02*
X74870000Y-83626000D01*
X74870000Y-83626000D02*
X77530000Y-83626000D01*
X77530000Y-83626000D02*
X77530000Y-83566000D01*
X77530000Y-83566000D02*
X74870000Y-83566000D01*
X74870000Y-82296000D02*
X74870000Y-80966000D01*
X74870000Y-80966000D02*
X76200000Y-80966000D01*
X77575000Y-42480000D02*
X77575000Y-43880000D01*
X77575000Y-43880000D02*
X80375000Y-43880000D01*
X77575000Y-42480000D02*
X80375000Y-42480000D01*
X83925000Y-42480000D02*
X83925000Y-43880000D01*
X83925000Y-43880000D02*
X86725000Y-43880000D01*
X83925000Y-42480000D02*
X86725000Y-42480000D01*
X90275000Y-42480000D02*
X90275000Y-43880000D01*
X90275000Y-43880000D02*
X93075000Y-43880000D01*
X90275000Y-42480000D02*
X93075000Y-42480000D01*
X96625000Y-42480000D02*
X96625000Y-43880000D01*
X96625000Y-43880000D02*
X99425000Y-43880000D01*
X96625000Y-42480000D02*
X99425000Y-42480000D01*
X77575000Y-45020000D02*
X77575000Y-46420000D01*
X77575000Y-46420000D02*
X80375000Y-46420000D01*
X77575000Y-45020000D02*
X80375000Y-45020000D01*
X83925000Y-45020000D02*
X83925000Y-46420000D01*
X83925000Y-46420000D02*
X86725000Y-46420000D01*
X83925000Y-45020000D02*
X86725000Y-45020000D01*
X90275000Y-45020000D02*
X90275000Y-46420000D01*
X90275000Y-46420000D02*
X93075000Y-46420000D01*
X90275000Y-45020000D02*
X93075000Y-45020000D01*
X96625000Y-45020000D02*
X96625000Y-46420000D01*
X96625000Y-46420000D02*
X99425000Y-46420000D01*
X96625000Y-45020000D02*
X99425000Y-45020000D01*
X77575000Y-47560000D02*
X77575000Y-48960000D01*
X77575000Y-48960000D02*
X80375000Y-48960000D01*
X77575000Y-47560000D02*
X80375000Y-47560000D01*
X83925000Y-47560000D02*
X83925000Y-48960000D01*
X83925000Y-48960000D02*
X86725000Y-48960000D01*
X83925000Y-47560000D02*
X86725000Y-47560000D01*
X90275000Y-47560000D02*
X90275000Y-48960000D01*
X90275000Y-48960000D02*
X93075000Y-48960000D01*
X90275000Y-47560000D02*
X93075000Y-47560000D01*
X96625000Y-47560000D02*
X96625000Y-48960000D01*
X96625000Y-48960000D02*
X99425000Y-48960000D01*
X96625000Y-47560000D02*
X99425000Y-47560000D01*
X77575000Y-50100000D02*
X77575000Y-51500000D01*
X77575000Y-51500000D02*
X80375000Y-51500000D01*
X77575000Y-50100000D02*
X80375000Y-50100000D01*
X83925000Y-50100000D02*
X83925000Y-51500000D01*
X83925000Y-51500000D02*
X86725000Y-51500000D01*
X83925000Y-50100000D02*
X86725000Y-50100000D01*
X90275000Y-50100000D02*
X90275000Y-51500000D01*
X90275000Y-51500000D02*
X93075000Y-51500000D01*
X90275000Y-50100000D02*
X93075000Y-50100000D01*
X96625000Y-50100000D02*
X96625000Y-51500000D01*
X96625000Y-51500000D02*
X99425000Y-51500000D01*
X96625000Y-50100000D02*
X99425000Y-50100000D01*
X77575000Y-52640000D02*
X77575000Y-54040000D01*
X77575000Y-54040000D02*
X80375000Y-54040000D01*
X77575000Y-52640000D02*
X80375000Y-52640000D01*
X83925000Y-52640000D02*
X83925000Y-54040000D01*
X83925000Y-54040000D02*
X86725000Y-54040000D01*
X83925000Y-52640000D02*
X86725000Y-52640000D01*
X90275000Y-52640000D02*
X90275000Y-54040000D01*
X90275000Y-54040000D02*
X93075000Y-54040000D01*
X90275000Y-52640000D02*
X93075000Y-52640000D01*
X96625000Y-52640000D02*
X96625000Y-54040000D01*
X96625000Y-54040000D02*
X99425000Y-54040000D01*
X96625000Y-52640000D02*
X99425000Y-52640000D01*
X77575000Y-55180000D02*
X77575000Y-56580000D01*
X77575000Y-56580000D02*
X80375000Y-56580000D01*
X77575000Y-55180000D02*
X80375000Y-55180000D01*
X83925000Y-55180000D02*
X83925000Y-56580000D01*
X83925000Y-56580000D02*
X86725000Y-56580000D01*
X83925000Y-55180000D02*
X86725000Y-55180000D01*
X90275000Y-55180000D02*
X90275000Y-56580000D01*
X90275000Y-56580000D02*
X93075000Y-56580000D01*
X90275000Y-55180000D02*
X93075000Y-55180000D01*
X96625000Y-55180000D02*
X96625000Y-56580000D01*
X96625000Y-56580000D02*
X99425000Y-56580000D01*
X96625000Y-55180000D02*
X99425000Y-55180000D01*
X77575000Y-57720000D02*
X77575000Y-59120000D01*
X77575000Y-59120000D02*
X80375000Y-59120000D01*
X77575000Y-57720000D02*
X80375000Y-57720000D01*
X83925000Y-57720000D02*
X83925000Y-59120000D01*
X83925000Y-59120000D02*
X86725000Y-59120000D01*
X83925000Y-57720000D02*
X86725000Y-57720000D01*
X90275000Y-57720000D02*
X90275000Y-59120000D01*
X90275000Y-59120000D02*
X93075000Y-59120000D01*
X90275000Y-57720000D02*
X93075000Y-57720000D01*
X96625000Y-57720000D02*
X96625000Y-59120000D01*
X96625000Y-59120000D02*
X99425000Y-59120000D01*
X96625000Y-57720000D02*
X99425000Y-57720000D01*
X77575000Y-60260000D02*
X77575000Y-61660000D01*
X77575000Y-61660000D02*
X80375000Y-61660000D01*
X77575000Y-60260000D02*
X80375000Y-60260000D01*
X83925000Y-60260000D02*
X83925000Y-61660000D01*
X83925000Y-61660000D02*
X86725000Y-61660000D01*
X83925000Y-60260000D02*
X86725000Y-60260000D01*
X90275000Y-60260000D02*
X90275000Y-61660000D01*
X90275000Y-61660000D02*
X93075000Y-61660000D01*
X90275000Y-60260000D02*
X93075000Y-60260000D01*
X96625000Y-60260000D02*
X96625000Y-61660000D01*
X96625000Y-61660000D02*
X99425000Y-61660000D01*
X96625000Y-60260000D02*
X99425000Y-60260000D01*
X77575000Y-62800000D02*
X77575000Y-64200000D01*
X77575000Y-64200000D02*
X80375000Y-64200000D01*
X77575000Y-62800000D02*
X80375000Y-62800000D01*
X83925000Y-62800000D02*
X83925000Y-64200000D01*
X83925000Y-64200000D02*
X86725000Y-64200000D01*
X83925000Y-62800000D02*
X86725000Y-62800000D01*
X90275000Y-62800000D02*
X90275000Y-64200000D01*
X90275000Y-64200000D02*
X93075000Y-64200000D01*
X90275000Y-62800000D02*
X93075000Y-62800000D01*
X96625000Y-62800000D02*
X96625000Y-64200000D01*
X96625000Y-64200000D02*
X99425000Y-64200000D01*
X96625000Y-62800000D02*
X99425000Y-62800000D01*
X77575000Y-65340000D02*
X77575000Y-66740000D01*
X77575000Y-66740000D02*
X80375000Y-66740000D01*
X77575000Y-65340000D02*
X80375000Y-65340000D01*
X83925000Y-65340000D02*
X83925000Y-66740000D01*
X83925000Y-66740000D02*
X86725000Y-66740000D01*
X83925000Y-65340000D02*
X86725000Y-65340000D01*
X90275000Y-65340000D02*
X90275000Y-66740000D01*
X90275000Y-66740000D02*
X93075000Y-66740000D01*
X90275000Y-65340000D02*
X93075000Y-65340000D01*
X96625000Y-65340000D02*
X96625000Y-66740000D01*
X96625000Y-66740000D02*
X99425000Y-66740000D01*
X96625000Y-65340000D02*
X99425000Y-65340000D01*
X77575000Y-67880000D02*
X77575000Y-69280000D01*
X77575000Y-69280000D02*
X80375000Y-69280000D01*
X77575000Y-67880000D02*
X80375000Y-67880000D01*
X83925000Y-67880000D02*
X83925000Y-69280000D01*
X83925000Y-69280000D02*
X86725000Y-69280000D01*
X83925000Y-67880000D02*
X86725000Y-67880000D01*
X90275000Y-67880000D02*
X90275000Y-69280000D01*
X90275000Y-69280000D02*
X93075000Y-69280000D01*
X90275000Y-67880000D02*
X93075000Y-67880000D01*
X96625000Y-67880000D02*
X96625000Y-69280000D01*
X96625000Y-69280000D02*
X99425000Y-69280000D01*
X96625000Y-67880000D02*
X99425000Y-67880000D01*
X77575000Y-70420000D02*
X77575000Y-71820000D01*
X77575000Y-71820000D02*
X80375000Y-71820000D01*
X77575000Y-70420000D02*
X80375000Y-70420000D01*
X83925000Y-70420000D02*
X83925000Y-71820000D01*
X83925000Y-71820000D02*
X86725000Y-71820000D01*
X83925000Y-70420000D02*
X86725000Y-70420000D01*
X90275000Y-70420000D02*
X90275000Y-71820000D01*
X90275000Y-71820000D02*
X93075000Y-71820000D01*
X90275000Y-70420000D02*
X93075000Y-70420000D01*
X96625000Y-70420000D02*
X96625000Y-71820000D01*
X96625000Y-71820000D02*
X99425000Y-71820000D01*
X96625000Y-70420000D02*
X99425000Y-70420000D01*
X77575000Y-72960000D02*
X77575000Y-74360000D01*
X77575000Y-74360000D02*
X80375000Y-74360000D01*
X77575000Y-72960000D02*
X80375000Y-72960000D01*
X83925000Y-72960000D02*
X83925000Y-74360000D01*
X83925000Y-74360000D02*
X86725000Y-74360000D01*
X83925000Y-72960000D02*
X86725000Y-72960000D01*
X90275000Y-72960000D02*
X90275000Y-74360000D01*
X90275000Y-74360000D02*
X93075000Y-74360000D01*
X90275000Y-72960000D02*
X93075000Y-72960000D01*
X96625000Y-72960000D02*
X96625000Y-74360000D01*
X96625000Y-74360000D02*
X99425000Y-74360000D01*
X96625000Y-72960000D02*
X99425000Y-72960000D01*
X77575000Y-75500000D02*
X77575000Y-76900000D01*
X77575000Y-76900000D02*
X80375000Y-76900000D01*
X77575000Y-75500000D02*
X80375000Y-75500000D01*
X83925000Y-75500000D02*
X83925000Y-76900000D01*
X83925000Y-76900000D02*
X86725000Y-76900000D01*
X83925000Y-75500000D02*
X86725000Y-75500000D01*
X90275000Y-75500000D02*
X90275000Y-76900000D01*
X90275000Y-76900000D02*
X93075000Y-76900000D01*
X90275000Y-75500000D02*
X93075000Y-75500000D01*
X96625000Y-75500000D02*
X96625000Y-76900000D01*
X96625000Y-76900000D02*
X99425000Y-76900000D01*
X96625000Y-75500000D02*
X99425000Y-75500000D01*
X77575000Y-78040000D02*
X77575000Y-79440000D01*
X77575000Y-79440000D02*
X80375000Y-79440000D01*
X77575000Y-78040000D02*
X80375000Y-78040000D01*
X83925000Y-78040000D02*
X83925000Y-79440000D01*
X83925000Y-79440000D02*
X86725000Y-79440000D01*
X83925000Y-78040000D02*
X86725000Y-78040000D01*
X90275000Y-78040000D02*
X90275000Y-79440000D01*
X90275000Y-79440000D02*
X93075000Y-79440000D01*
X90275000Y-78040000D02*
X93075000Y-78040000D01*
X96625000Y-78040000D02*
X96625000Y-79440000D01*
X96625000Y-79440000D02*
X99425000Y-79440000D01*
X96625000Y-78040000D02*
X99425000Y-78040000D01*
X52175000Y-78040000D02*
X52175000Y-79440000D01*
X52175000Y-79440000D02*
X54975000Y-79440000D01*
X52175000Y-78040000D02*
X54975000Y-78040000D01*
X58525000Y-78040000D02*
X58525000Y-79440000D01*
X58525000Y-79440000D02*
X61325000Y-79440000D01*
X58525000Y-78040000D02*
X61325000Y-78040000D01*
X64875000Y-78040000D02*
X64875000Y-79440000D01*
X64875000Y-79440000D02*
X67675000Y-79440000D01*
X64875000Y-78040000D02*
X67675000Y-78040000D01*
X71225000Y-78040000D02*
X71225000Y-79440000D01*
X71225000Y-79440000D02*
X74025000Y-79440000D01*
X71225000Y-78040000D02*
X74025000Y-78040000D01*
X52175000Y-75500000D02*
X52175000Y-76900000D01*
X52175000Y-76900000D02*
X54975000Y-76900000D01*
X52175000Y-75500000D02*
X54975000Y-75500000D01*
X58525000Y-75500000D02*
X58525000Y-76900000D01*
X58525000Y-76900000D02*
X61325000Y-76900000D01*
X58525000Y-75500000D02*
X61325000Y-75500000D01*
X64875000Y-75500000D02*
X64875000Y-76900000D01*
X64875000Y-76900000D02*
X67675000Y-76900000D01*
X64875000Y-75500000D02*
X67675000Y-75500000D01*
X71225000Y-75500000D02*
X71225000Y-76900000D01*
X71225000Y-76900000D02*
X74025000Y-76900000D01*
X71225000Y-75500000D02*
X74025000Y-75500000D01*
X52175000Y-72960000D02*
X52175000Y-74360000D01*
X52175000Y-74360000D02*
X54975000Y-74360000D01*
X52175000Y-72960000D02*
X54975000Y-72960000D01*
X58525000Y-72960000D02*
X58525000Y-74360000D01*
X58525000Y-74360000D02*
X61325000Y-74360000D01*
X58525000Y-72960000D02*
X61325000Y-72960000D01*
X64875000Y-72960000D02*
X64875000Y-74360000D01*
X64875000Y-74360000D02*
X67675000Y-74360000D01*
X64875000Y-72960000D02*
X67675000Y-72960000D01*
X71225000Y-72960000D02*
X71225000Y-74360000D01*
X71225000Y-74360000D02*
X74025000Y-74360000D01*
X71225000Y-72960000D02*
X74025000Y-72960000D01*
X52175000Y-70420000D02*
X52175000Y-71820000D01*
X52175000Y-71820000D02*
X54975000Y-71820000D01*
X52175000Y-70420000D02*
X54975000Y-70420000D01*
X58525000Y-70420000D02*
X58525000Y-71820000D01*
X58525000Y-71820000D02*
X61325000Y-71820000D01*
X58525000Y-70420000D02*
X61325000Y-70420000D01*
X64875000Y-70420000D02*
X64875000Y-71820000D01*
X64875000Y-71820000D02*
X67675000Y-71820000D01*
X64875000Y-70420000D02*
X67675000Y-70420000D01*
X71225000Y-70420000D02*
X71225000Y-71820000D01*
X71225000Y-71820000D02*
X74025000Y-71820000D01*
X71225000Y-70420000D02*
X74025000Y-70420000D01*
X52175000Y-67880000D02*
X52175000Y-69280000D01*
X52175000Y-69280000D02*
X54975000Y-69280000D01*
X52175000Y-67880000D02*
X54975000Y-67880000D01*
X58525000Y-67880000D02*
X58525000Y-69280000D01*
X58525000Y-69280000D02*
X61325000Y-69280000D01*
X58525000Y-67880000D02*
X61325000Y-67880000D01*
X64875000Y-67880000D02*
X64875000Y-69280000D01*
X64875000Y-69280000D02*
X67675000Y-69280000D01*
X64875000Y-67880000D02*
X67675000Y-67880000D01*
X71225000Y-67880000D02*
X71225000Y-69280000D01*
X71225000Y-69280000D02*
X74025000Y-69280000D01*
X71225000Y-67880000D02*
X74025000Y-67880000D01*
X52175000Y-65340000D02*
X52175000Y-66740000D01*
X52175000Y-66740000D02*
X54975000Y-66740000D01*
X52175000Y-65340000D02*
X54975000Y-65340000D01*
X58525000Y-65340000D02*
X58525000Y-66740000D01*
X58525000Y-66740000D02*
X61325000Y-66740000D01*
X58525000Y-65340000D02*
X61325000Y-65340000D01*
X64875000Y-65340000D02*
X64875000Y-66740000D01*
X64875000Y-66740000D02*
X67675000Y-66740000D01*
X64875000Y-65340000D02*
X67675000Y-65340000D01*
X71225000Y-65340000D02*
X71225000Y-66740000D01*
X71225000Y-66740000D02*
X74025000Y-66740000D01*
X71225000Y-65340000D02*
X74025000Y-65340000D01*
X52175000Y-62800000D02*
X52175000Y-64200000D01*
X52175000Y-64200000D02*
X54975000Y-64200000D01*
X52175000Y-62800000D02*
X54975000Y-62800000D01*
X58525000Y-62800000D02*
X58525000Y-64200000D01*
X58525000Y-64200000D02*
X61325000Y-64200000D01*
X58525000Y-62800000D02*
X61325000Y-62800000D01*
X64875000Y-62800000D02*
X64875000Y-64200000D01*
X64875000Y-64200000D02*
X67675000Y-64200000D01*
X64875000Y-62800000D02*
X67675000Y-62800000D01*
X71225000Y-62800000D02*
X71225000Y-64200000D01*
X71225000Y-64200000D02*
X74025000Y-64200000D01*
X71225000Y-62800000D02*
X74025000Y-62800000D01*
X52175000Y-60260000D02*
X52175000Y-61660000D01*
X52175000Y-61660000D02*
X54975000Y-61660000D01*
X52175000Y-60260000D02*
X54975000Y-60260000D01*
X58525000Y-60260000D02*
X58525000Y-61660000D01*
X58525000Y-61660000D02*
X61325000Y-61660000D01*
X58525000Y-60260000D02*
X61325000Y-60260000D01*
X64875000Y-60260000D02*
X64875000Y-61660000D01*
X64875000Y-61660000D02*
X67675000Y-61660000D01*
X64875000Y-60260000D02*
X67675000Y-60260000D01*
X71225000Y-60260000D02*
X71225000Y-61660000D01*
X71225000Y-61660000D02*
X74025000Y-61660000D01*
X71225000Y-60260000D02*
X74025000Y-60260000D01*
X52175000Y-57720000D02*
X52175000Y-59120000D01*
X52175000Y-59120000D02*
X54975000Y-59120000D01*
X52175000Y-57720000D02*
X54975000Y-57720000D01*
X58525000Y-57720000D02*
X58525000Y-59120000D01*
X58525000Y-59120000D02*
X61325000Y-59120000D01*
X58525000Y-57720000D02*
X61325000Y-57720000D01*
X64875000Y-57720000D02*
X64875000Y-59120000D01*
X64875000Y-59120000D02*
X67675000Y-59120000D01*
X64875000Y-57720000D02*
X67675000Y-57720000D01*
X71225000Y-57720000D02*
X71225000Y-59120000D01*
X71225000Y-59120000D02*
X74025000Y-59120000D01*
X71225000Y-57720000D02*
X74025000Y-57720000D01*
X52175000Y-55180000D02*
X52175000Y-56580000D01*
X52175000Y-56580000D02*
X54975000Y-56580000D01*
X52175000Y-55180000D02*
X54975000Y-55180000D01*
X58525000Y-55180000D02*
X58525000Y-56580000D01*
X58525000Y-56580000D02*
X61325000Y-56580000D01*
X58525000Y-55180000D02*
X61325000Y-55180000D01*
X64875000Y-55180000D02*
X64875000Y-56580000D01*
X64875000Y-56580000D02*
X67675000Y-56580000D01*
X64875000Y-55180000D02*
X67675000Y-55180000D01*
X71225000Y-55180000D02*
X71225000Y-56580000D01*
X71225000Y-56580000D02*
X74025000Y-56580000D01*
X71225000Y-55180000D02*
X74025000Y-55180000D01*
X52175000Y-52640000D02*
X52175000Y-54040000D01*
X52175000Y-54040000D02*
X54975000Y-54040000D01*
X52175000Y-52640000D02*
X54975000Y-52640000D01*
X58525000Y-52640000D02*
X58525000Y-54040000D01*
X58525000Y-54040000D02*
X61325000Y-54040000D01*
X58525000Y-52640000D02*
X61325000Y-52640000D01*
X64875000Y-52640000D02*
X64875000Y-54040000D01*
X64875000Y-54040000D02*
X67675000Y-54040000D01*
X64875000Y-52640000D02*
X67675000Y-52640000D01*
X71225000Y-52640000D02*
X71225000Y-54040000D01*
X71225000Y-54040000D02*
X74025000Y-54040000D01*
X71225000Y-52640000D02*
X74025000Y-52640000D01*
X52175000Y-50100000D02*
X52175000Y-51500000D01*
X52175000Y-51500000D02*
X54975000Y-51500000D01*
X52175000Y-50100000D02*
X54975000Y-50100000D01*
X58525000Y-50100000D02*
X58525000Y-51500000D01*
X58525000Y-51500000D02*
X61325000Y-51500000D01*
X58525000Y-50100000D02*
X61325000Y-50100000D01*
X64875000Y-50100000D02*
X64875000Y-51500000D01*
X64875000Y-51500000D02*
X67675000Y-51500000D01*
X64875000Y-50100000D02*
X67675000Y-50100000D01*
X71225000Y-50100000D02*
X71225000Y-51500000D01*
X71225000Y-51500000D02*
X74025000Y-51500000D01*
X71225000Y-50100000D02*
X74025000Y-50100000D01*
X52175000Y-47560000D02*
X52175000Y-48960000D01*
X52175000Y-48960000D02*
X54975000Y-48960000D01*
X52175000Y-47560000D02*
X54975000Y-47560000D01*
X58525000Y-47560000D02*
X58525000Y-48960000D01*
X58525000Y-48960000D02*
X61325000Y-48960000D01*
X58525000Y-47560000D02*
X61325000Y-47560000D01*
X64875000Y-47560000D02*
X64875000Y-48960000D01*
X64875000Y-48960000D02*
X67675000Y-48960000D01*
X64875000Y-47560000D02*
X67675000Y-47560000D01*
X71225000Y-47560000D02*
X71225000Y-48960000D01*
X71225000Y-48960000D02*
X74025000Y-48960000D01*
X71225000Y-47560000D02*
X74025000Y-47560000D01*
X52175000Y-45020000D02*
X52175000Y-46420000D01*
X52175000Y-46420000D02*
X54975000Y-46420000D01*
X52175000Y-45020000D02*
X54975000Y-45020000D01*
X58525000Y-45020000D02*
X58525000Y-46420000D01*
X58525000Y-46420000D02*
X61325000Y-46420000D01*
X58525000Y-45020000D02*
X61325000Y-45020000D01*
X64875000Y-45020000D02*
X64875000Y-46420000D01*
X64875000Y-46420000D02*
X67675000Y-46420000D01*
X64875000Y-45020000D02*
X67675000Y-45020000D01*
X71225000Y-45020000D02*
X71225000Y-46420000D01*
X71225000Y-46420000D02*
X74025000Y-46420000D01*
X71225000Y-45020000D02*
X74025000Y-45020000D01*
X52175000Y-42480000D02*
X52175000Y-43880000D01*
X52175000Y-43880000D02*
X54975000Y-43880000D01*
X52175000Y-42480000D02*
X54975000Y-42480000D01*
X58525000Y-42480000D02*
X58525000Y-43880000D01*
X58525000Y-43880000D02*
X61325000Y-43880000D01*
X58525000Y-42480000D02*
X61325000Y-42480000D01*
X64875000Y-42480000D02*
X64875000Y-43880000D01*
X64875000Y-43880000D02*
X67675000Y-43880000D01*
X64875000Y-42480000D02*
X67675000Y-42480000D01*
X71225000Y-42480000D02*
X71225000Y-43880000D01*
X71225000Y-43880000D02*
X74025000Y-43880000D01*
X71225000Y-42480000D02*
X74025000Y-42480000D01*
X58070000Y-81200000D02*
X58070000Y-83200000D01*
X55930000Y-83200000D02*
X55930000Y-81200000D01*
X66775000Y-85850000D02*
X66775000Y-81550000D01*
X66775000Y-81550000D02*
X61075000Y-81550000D01*
X66775000Y-85850000D02*
X61075000Y-85850000D01*
M02*
